Nobel-Extra_Light_Italic.ufo
<glyph name="exclam" format="1">
  <advance width="181"/>
  <unicode hex="0021"/>
  <outline>
    <contour>
      <point x="167" y="730" type="line"/>
      <point x="80" y="232" type="line"/>
      <point x="54" y="115" type="line"/>
      <point x="42" y="115" type="line"/>
      <point x="58" y="232" type="line"/>
      <point x="145" y="730" type="line"/>
    </contour>
    <contour>
      <point x="51" y="71" type="line"/>
      <point x="38" y="0" type="line"/>
      <point x="16" y="0" type="line"/>
      <point x="29" y="71" type="line"/>
    </contour>
  </outline>
</glyph>
<glyph name="quotedbl" format="1">
  <advance width="251"/>
  <unicode hex="0022"/>
  <outline>
    <contour>
      <point x="252" y="730" type="line"/>
      <point x="237" y="653" type="line"/>
      <point x="220" y="573" type="line"/>
      <point x="208" y="573" type="line"/>
      <point x="215" y="653" type="line"/>
      <point x="230" y="730" type="line"/>
    </contour>
    <contour>
      <point x="153" y="730" type="line"/>
      <point x="139" y="653" type="line"/>
      <point x="121" y="573" type="line"/>
      <point x="109" y="573" type="line"/>
      <point x="116" y="653" type="line"/>
      <point x="131" y="730" type="line"/>
    </contour>
  </outline>
</glyph>
<glyph name="numbersign" format="1">
  <advance width="573"/>
  <unicode hex="0023"/>
  <outline>
    <contour>
      <point x="209" y="504" type="curve"/>
      <point x="278" y="730" type="line"/>
      <point x="300" y="730" type="line"/>
      <point x="232" y="504" type="line"/>
      <point x="327" y="504"/>
      <point x="425" y="504"/>
      <point x="424" y="504" type="curve"/>
      <point x="493" y="730" type="line"/>
      <point x="515" y="730" type="line"/>
      <point x="447" y="504" type="line"/>
      <point x="582" y="504" type="line"/>
      <point x="574" y="483" type="line"/>
      <point x="441" y="483" type="line"/>
      <point x="373" y="258" type="line"/>
      <point x="531" y="258" type="line"/>
      <point x="523" y="237" type="line"/>
      <point x="367" y="237" type="line"/>
      <point x="295" y="0" type="line"/>
      <point x="273" y="0" type="line"/>
      <point x="344" y="237" type="line"/>
      <point x="345" y="237"/>
      <point x="245" y="237"/>
      <point x="152" y="237" type="curve"/>
      <point x="80" y="0" type="line"/>
      <point x="58" y="0" type="line"/>
      <point x="129" y="237" type="line"/>
      <point x="57" y="237"/>
      <point x="-7" y="237"/>
      <point x="-7" y="237" type="curve"/>
      <point x="1" y="258" type="line"/>
      <point x="1" y="258"/>
      <point x="64" y="258"/>
      <point x="135" y="258" type="curve"/>
      <point x="203" y="483" type="line"/>
      <point x="204" y="483"/>
      <point x="44" y="483"/>
      <point x="44" y="483" type="curve"/>
      <point x="52" y="504" type="line"/>
      <point x="52" y="504"/>
      <point x="127" y="504"/>
    </contour>
    <contour>
      <point x="226" y="483" type="line"/>
      <point x="158" y="258" type="line"/>
      <point x="251" y="258"/>
      <point x="351" y="258"/>
      <point x="350" y="258" type="curve"/>
      <point x="418" y="483" type="line"/>
    </contour>
  </outline>
</glyph>
<glyph name="dollar" format="1">
  <advance width="470"/>
  <unicode hex="0024"/>
  <outline>
    <contour>
      <point x="315" y="744" type="line"/>
      <point x="373" y="737"/>
      <point x="421" y="711"/>
      <point x="454" y="658" type="curve"/>
      <point x="436" y="646" type="line"/>
      <point x="406" y="694"/>
      <point x="363" y="717"/>
      <point x="311" y="724" type="curve"/>
      <point x="252" y="387" type="line"/>
      <point x="253" y="386"/>
      <point x="255" y="385"/>
      <point x="256" y="384" type="curve"/>
      <point x="371" y="314"/>
      <point x="405" y="259"/>
      <point x="405" y="180" type="curve" smooth="yes"/>
      <point x="405" y="62"/>
      <point x="296" y="-13"/>
      <point x="182" y="-13" type="curve" smooth="yes"/>
      <point x="182" y="-13"/>
      <point x="182" y="-13"/>
      <point x="181" y="-13" type="curve"/>
      <point x="168" y="-89" type="line"/>
      <point x="148" y="-89" type="line"/>
      <point x="148" y="-89"/>
      <point x="162" y="-12"/>
      <point x="161" y="-12" type="curve"/>
      <point x="97" y="-6"/>
      <point x="33" y="26"/>
      <point x="-2" y="70" type="curve"/>
      <point x="16" y="84" type="line"/>
      <point x="48" y="44"/>
      <point x="105" y="13"/>
      <point x="165" y="8" type="curve" smooth="yes"/>
      <point x="166" y="8"/>
      <point x="230" y="375"/>
      <point x="230" y="375" type="curve"/>
      <point x="114" y="450"/>
      <point x="89" y="501"/>
      <point x="89" y="568" type="curve" smooth="yes"/>
      <point x="89" y="681"/>
      <point x="184" y="746"/>
      <point x="277" y="746" type="curve" smooth="yes"/>
      <point x="283" y="746"/>
      <point x="289" y="746"/>
      <point x="295" y="746" type="curve"/>
      <point x="305" y="802" type="line"/>
      <point x="325" y="802" type="line"/>
    </contour>
    <contour>
      <point x="292" y="726" type="line"/>
      <point x="287" y="726"/>
      <point x="282" y="726"/>
      <point x="277" y="726" type="curve" smooth="yes"/>
      <point x="196" y="726"/>
      <point x="111" y="667"/>
      <point x="111" y="568" type="curve" smooth="yes"/>
      <point x="111" y="508"/>
      <point x="134" y="464"/>
      <point x="234" y="398" type="curve"/>
    </contour>
    <contour>
      <point x="185" y="7" type="line"/>
      <point x="286" y="8"/>
      <point x="383" y="75"/>
      <point x="383" y="180" type="curve" smooth="yes"/>
      <point x="383" y="250"/>
      <point x="350" y="301"/>
      <point x="248" y="364" type="curve"/>
    </contour>
  </outline>
</glyph>
<glyph name="percent" format="1">
  <advance width="734"/>
  <unicode hex="0025"/>
  <outline>
    <contour>
      <point x="92" y="503" type="curve" smooth="yes"/>
      <point x="92" y="631"/>
      <point x="174" y="740"/>
      <point x="264" y="740" type="curve" smooth="yes"/>
      <point x="340" y="740"/>
      <point x="380" y="679"/>
      <point x="380" y="602" type="curve" smooth="yes"/>
      <point x="380" y="476"/>
      <point x="297" y="369"/>
      <point x="207" y="369" type="curve" smooth="yes"/>
      <point x="124" y="369"/>
      <point x="92" y="436"/>
    </contour>
    <contour>
      <point x="712" y="730" type="line"/>
      <point x="47" y="0" type="line"/>
      <point x="21" y="0" type="line"/>
      <point x="686" y="730" type="line"/>
    </contour>
    <contour>
      <point x="356" y="122" type="curve" smooth="yes"/>
      <point x="356" y="250"/>
      <point x="438" y="359"/>
      <point x="528" y="359" type="curve" smooth="yes"/>
      <point x="604" y="359"/>
      <point x="644" y="298"/>
      <point x="644" y="221" type="curve" smooth="yes"/>
      <point x="644" y="95"/>
      <point x="561" y="-12"/>
      <point x="471" y="-12" type="curve" smooth="yes"/>
      <point x="388" y="-12"/>
      <point x="356" y="55"/>
    </contour>
    <contour>
      <point x="114" y="504" type="curve" smooth="yes"/>
      <point x="114" y="436"/>
      <point x="144" y="388"/>
      <point x="207" y="388" type="curve" smooth="yes"/>
      <point x="286" y="388"/>
      <point x="359" y="481"/>
      <point x="359" y="604" type="curve" smooth="yes"/>
      <point x="359" y="672"/>
      <point x="325" y="720"/>
      <point x="264" y="720" type="curve" smooth="yes"/>
      <point x="184" y="720"/>
      <point x="114" y="623"/>
    </contour>
    <contour>
      <point x="378" y="123" type="curve" smooth="yes"/>
      <point x="378" y="55"/>
      <point x="408" y="7"/>
      <point x="471" y="7" type="curve" smooth="yes"/>
      <point x="550" y="7"/>
      <point x="623" y="100"/>
      <point x="623" y="223" type="curve" smooth="yes"/>
      <point x="623" y="291"/>
      <point x="589" y="339"/>
      <point x="528" y="339" type="curve" smooth="yes"/>
      <point x="447" y="339"/>
      <point x="378" y="242"/>
    </contour>
  </outline>
</glyph>
<glyph name="ampersand" format="1">
  <advance width="624"/>
  <unicode hex="0026"/>
  <outline>
    <contour>
      <point x="442" y="95" type="curve"/>
      <point x="358" y="30"/>
      <point x="288" y="-12"/>
      <point x="198" y="-12" type="curve" smooth="yes"/>
      <point x="86" y="-12"/>
      <point x="28" y="63"/>
      <point x="28" y="155" type="curve" smooth="yes"/>
      <point x="28" y="248"/>
      <point x="91" y="330"/>
      <point x="231" y="400" type="curve"/>
      <point x="185" y="465"/>
      <point x="152" y="518"/>
      <point x="152" y="582" type="curve" smooth="yes"/>
      <point x="152" y="671"/>
      <point x="228" y="742"/>
      <point x="314" y="742" type="curve" smooth="yes"/>
      <point x="397" y="742"/>
      <point x="449" y="685"/>
      <point x="449" y="609" type="curve" smooth="yes"/>
      <point x="449" y="528"/>
      <point x="387" y="462"/>
      <point x="258" y="393" type="curve"/>
      <point x="310" y="319"/>
      <point x="374" y="226"/>
      <point x="446" y="124" type="curve"/>
      <point x="474" y="147"/>
      <point x="507" y="181"/>
      <point x="530" y="206" type="curve"/>
      <point x="543" y="190" type="line"/>
      <point x="519" y="166"/>
      <point x="483" y="129"/>
      <point x="457" y="108" type="curve"/>
      <point x="489" y="63"/>
      <point x="535" y="0"/>
      <point x="535" y="0" type="curve"/>
      <point x="508" y="0" type="line"/>
      <point x="508" y="0"/>
      <point x="470" y="55"/>
    </contour>
    <contour>
      <point x="248" y="408" type="curve"/>
      <point x="375" y="474"/>
      <point x="429" y="539"/>
      <point x="429" y="609" type="curve" smooth="yes"/>
      <point x="429" y="670"/>
      <point x="390" y="724"/>
      <point x="313" y="724" type="curve" smooth="yes"/>
      <point x="239" y="724"/>
      <point x="172" y="660"/>
      <point x="172" y="582" type="curve" smooth="yes"/>
      <point x="172" y="521"/>
      <point x="206" y="465"/>
    </contour>
    <contour>
      <point x="431" y="111" type="curve"/>
      <point x="357" y="217"/>
      <point x="291" y="314"/>
      <point x="241" y="385" type="curve"/>
      <point x="102" y="319"/>
      <point x="48" y="231"/>
      <point x="48" y="155" type="curve" smooth="yes"/>
      <point x="48" y="69"/>
      <point x="108" y="7"/>
      <point x="200" y="7" type="curve" smooth="yes"/>
      <point x="274" y="7"/>
      <point x="359" y="53"/>
    </contour>
  </outline>
</glyph>
<glyph name="quotesingle" format="1">
  <advance width="153"/>
  <unicode hex="0027"/>
  <outline>
    <contour>
      <point x="154" y="730" type="line"/>
      <point x="140" y="653" type="line"/>
      <point x="122" y="573" type="line"/>
      <point x="110" y="573" type="line"/>
      <point x="117" y="653" type="line"/>
      <point x="132" y="730" type="line"/>
    </contour>
  </outline>
</glyph>
<glyph name="parenleft" format="1">
  <advance width="286"/>
  <unicode hex="0028"/>
  <outline>
    <contour>
      <point x="352" y="784" type="curve"/>
      <point x="349" y="764" type="line"/>
      <point x="200" y="657"/>
      <point x="43" y="443"/>
      <point x="43" y="174" type="curve" smooth="yes"/>
      <point x="43" y="61"/>
      <point x="70" y="-63"/>
      <point x="179" y="-183" type="curve"/>
      <point x="175" y="-203" type="line"/>
      <point x="59" y="-77"/>
      <point x="21" y="40"/>
      <point x="21" y="174" type="curve" smooth="yes"/>
      <point x="21" y="455"/>
      <point x="185" y="671"/>
    </contour>
  </outline>
</glyph>
<glyph name="parenright" format="1">
  <advance width="286"/>
  <unicode hex="0029"/>
  <outline>
    <contour>
      <point x="-66" y="-203" type="curve"/>
      <point x="-63" y="-183" type="line"/>
      <point x="86" y="-76"/>
      <point x="243" y="138"/>
      <point x="243" y="407" type="curve" smooth="yes"/>
      <point x="243" y="520"/>
      <point x="216" y="644"/>
      <point x="107" y="764" type="curve"/>
      <point x="111" y="784" type="line"/>
      <point x="227" y="658"/>
      <point x="265" y="541"/>
      <point x="265" y="407" type="curve" smooth="yes"/>
      <point x="265" y="126"/>
      <point x="101" y="-90"/>
    </contour>
  </outline>
</glyph>
<glyph name="asterisk" format="1">
  <advance width="393"/>
  <unicode hex="002A"/>
  <outline>
    <contour>
      <point x="382" y="559" type="line"/>
      <point x="375" y="540" type="line"/>
      <point x="241" y="587" type="line"/>
      <point x="243" y="442" type="line"/>
      <point x="222" y="442" type="line"/>
      <point x="224" y="587" type="line"/>
      <point x="87" y="540" type="line"/>
      <point x="81" y="559" type="line"/>
      <point x="220" y="602" type="line"/>
      <point x="132" y="719" type="line"/>
      <point x="148" y="731" type="line"/>
      <point x="232" y="612" type="line"/>
      <point x="316" y="729" type="line"/>
      <point x="333" y="718" type="line"/>
      <point x="244" y="602" type="line"/>
    </contour>
  </outline>
</glyph>
<glyph name="plus" format="1">
  <advance width="483"/>
  <unicode hex="002B"/>
  <outline>
    <contour>
      <point x="444" y="320" type="line"/>
      <point x="251" y="320" type="line"/>
      <point x="217" y="125" type="line"/>
      <point x="195" y="125" type="line"/>
      <point x="229" y="320" type="line"/>
      <point x="35" y="320" type="line"/>
      <point x="39" y="340" type="line"/>
      <point x="233" y="340" type="line"/>
      <point x="268" y="537" type="line"/>
      <point x="290" y="537" type="line"/>
      <point x="255" y="340" type="line"/>
      <point x="448" y="340" type="line"/>
    </contour>
  </outline>
</glyph>
<glyph name="comma" format="1">
  <advance width="150"/>
  <unicode hex="002C"/>
  <outline>
    <contour>
      <point x="37" y="71" type="line"/>
      <point x="24" y="0" type="line" smooth="yes"/>
      <point x="13" y="-60"/>
      <point x="-12" y="-111"/>
      <point x="-52" y="-150" type="curve"/>
      <point x="-68" y="-150" type="line"/>
      <point x="-18" y="-93"/>
      <point x="-3" y="-38"/>
      <point x="4" y="3" type="curve" smooth="yes"/>
      <point x="15" y="71" type="line"/>
    </contour>
  </outline>
</glyph>
<glyph name="hyphen" format="1">
  <advance width="344"/>
  <unicode hex="002D"/>
  <unicode hex="2010"/>
  <unicode hex="2011"/>
  <outline>
    <contour>
      <point x="255" y="242" type="line"/>
      <point x="251" y="220" type="line"/>
      <point x="42" y="220" type="line"/>
      <point x="46" y="242" type="line"/>
    </contour>
  </outline>
</glyph>
<glyph name="period" format="1">
  <advance width="157"/>
  <unicode hex="002E"/>
  <outline>
    <contour>
      <point x="37" y="71" type="line"/>
      <point x="24" y="0" type="line"/>
      <point x="2" y="0" type="line"/>
      <point x="15" y="71" type="line"/>
    </contour>
  </outline>
</glyph>
<glyph name="slash" format="1">
  <advance width="367"/>
  <unicode hex="002F"/>
  <outline>
    <contour>
      <point x="379" y="730" type="line"/>
      <point x="11" y="0" type="line"/>
      <point x="-13" y="0" type="line"/>
      <point x="355" y="730" type="line"/>
    </contour>
  </outline>
</glyph>
<glyph name="zero" format="1">
  <advance width="618"/>
  <unicode hex="0030"/>
  <outline>
    <contour>
      <point x="585" y="461" type="curve" smooth="yes"/>
      <point x="585" y="214"/>
      <point x="441" y="-12"/>
      <point x="256" y="-12" type="curve" smooth="yes"/>
      <point x="121" y="-12"/>
      <point x="28" y="75"/>
      <point x="28" y="268" type="curve" smooth="yes"/>
      <point x="28" y="510"/>
      <point x="167" y="742"/>
      <point x="358" y="742" type="curve" smooth="yes"/>
      <point x="492" y="742"/>
      <point x="585" y="649"/>
    </contour>
    <contour>
      <point x="50" y="268" type="curve" smooth="yes"/>
      <point x="50" y="91"/>
      <point x="133" y="8"/>
      <point x="256" y="8" type="curve" smooth="yes"/>
      <point x="431" y="8"/>
      <point x="563" y="228"/>
      <point x="563" y="461" type="curve" smooth="yes"/>
      <point x="563" y="634"/>
      <point x="480" y="722"/>
      <point x="358" y="722" type="curve" smooth="yes"/>
      <point x="179" y="722"/>
      <point x="50" y="495"/>
    </contour>
  </outline>
</glyph>
<glyph name="one" format="1">
  <advance width="233"/>
  <unicode hex="0031"/>
  <outline>
    <contour>
      <point x="223" y="730" type="line"/>
      <point x="94" y="0" type="line"/>
      <point x="72" y="0" type="line"/>
      <point x="192" y="681" type="line"/>
      <point x="159" y="637"/>
      <point x="108" y="600"/>
      <point x="48" y="591" type="curve"/>
      <point x="52" y="612" type="line"/>
      <point x="106" y="617"/>
      <point x="180" y="679"/>
      <point x="201" y="730" type="curve"/>
    </contour>
  </outline>
</glyph>
<glyph name="two" format="1">
  <advance width="502"/>
  <unicode hex="0032"/>
  <outline>
    <contour>
      <point x="490" y="568" type="curve" smooth="yes"/>
      <point x="490" y="490"/>
      <point x="460" y="428"/>
      <point x="352" y="332" type="curve" smooth="yes"/>
      <point x="1" y="22" type="line"/>
      <point x="396" y="22" type="line"/>
      <point x="392" y="0" type="line"/>
      <point x="-56" y="0" type="line"/>
      <point x="343" y="351" type="line" smooth="yes"/>
      <point x="425" y="423"/>
      <point x="468" y="488"/>
      <point x="468" y="569" type="curve" smooth="yes"/>
      <point x="468" y="648"/>
      <point x="414" y="722"/>
      <point x="303" y="722" type="curve" smooth="yes"/>
      <point x="201" y="722"/>
      <point x="130" y="675"/>
      <point x="88" y="574" type="curve"/>
      <point x="66" y="574" type="line"/>
      <point x="105" y="678"/>
      <point x="183" y="742"/>
      <point x="305" y="742" type="curve" smooth="yes"/>
      <point x="423" y="742"/>
      <point x="490" y="663"/>
    </contour>
  </outline>
</glyph>
<glyph name="three" format="1">
  <advance width="544"/>
  <unicode hex="0033"/>
  <outline>
    <contour>
      <point x="265" y="381" type="curve" smooth="yes"/>
      <point x="258" y="381"/>
      <point x="189" y="381"/>
      <point x="189" y="381" type="curve"/>
      <point x="192" y="401" type="line"/>
      <point x="192" y="401"/>
      <point x="270" y="401"/>
      <point x="279" y="402" type="curve" smooth="yes"/>
      <point x="408" y="416"/>
      <point x="475" y="490"/>
      <point x="475" y="579" type="curve" smooth="yes"/>
      <point x="475" y="679"/>
      <point x="388" y="720"/>
      <point x="303" y="720" type="curve" smooth="yes"/>
      <point x="230" y="720"/>
      <point x="178" y="701"/>
      <point x="132" y="665" type="curve"/>
      <point x="118" y="682" type="line"/>
      <point x="167" y="720"/>
      <point x="227" y="742"/>
      <point x="303" y="742" type="curve" smooth="yes"/>
      <point x="401" y="742"/>
      <point x="497" y="693"/>
      <point x="497" y="579" type="curve" smooth="yes"/>
      <point x="497" y="493"/>
      <point x="441" y="418"/>
      <point x="332" y="390" type="curve"/>
      <point x="420" y="360"/>
      <point x="465" y="304"/>
      <point x="465" y="210" type="curve" smooth="yes"/>
      <point x="465" y="80"/>
      <point x="374" y="-14"/>
      <point x="231" y="-14" type="curve" smooth="yes"/>
      <point x="124" y="-14"/>
      <point x="22" y="36"/>
      <point x="-24" y="137" type="curve"/>
      <point x="-4" y="147" type="line"/>
      <point x="36" y="56"/>
      <point x="132" y="8"/>
      <point x="231" y="8" type="curve" smooth="yes"/>
      <point x="360" y="8"/>
      <point x="443" y="92"/>
      <point x="443" y="210" type="curve" smooth="yes"/>
      <point x="443" y="346"/>
      <point x="322" y="381"/>
    </contour>
  </outline>
</glyph>
<glyph name="four" format="1">
  <advance width="525"/>
  <unicode hex="0034"/>
  <outline>
    <contour>
      <point x="476" y="221" type="line"/>
      <point x="473" y="202" type="line"/>
      <point x="352" y="202" type="line"/>
      <point x="316" y="0" type="line"/>
      <point x="294" y="0" type="line"/>
      <point x="331" y="202" type="line"/>
      <point x="-11" y="202" type="line"/>
      <point x="-7" y="215" type="line"/>
      <point x="442" y="730" type="line"/>
      <point x="445" y="730" type="line"/>
      <point x="356" y="221" type="line"/>
    </contour>
    <contour>
      <point x="413" y="666" type="line"/>
      <point x="24" y="221" type="line"/>
      <point x="334" y="221" type="line"/>
    </contour>
  </outline>
</glyph>
<glyph name="five" format="1">
  <advance width="588"/>
  <unicode hex="0035"/>
  <outline>
    <contour>
      <point x="529" y="730" type="line"/>
      <point x="525" y="709" type="line"/>
      <point x="169" y="709" type="line"/>
      <point x="105" y="421" type="line"/>
      <point x="153" y="468"/>
      <point x="216" y="500"/>
      <point x="278" y="500" type="curve" smooth="yes"/>
      <point x="426" y="500"/>
      <point x="500" y="392"/>
      <point x="500" y="270" type="curve" smooth="yes"/>
      <point x="500" y="114"/>
      <point x="383" y="-12"/>
      <point x="227" y="-12" type="curve" smooth="yes"/>
      <point x="119" y="-12"/>
      <point x="41" y="47"/>
      <point x="2" y="109" type="curve"/>
      <point x="18" y="122" type="line"/>
      <point x="70" y="46"/>
      <point x="136" y="8"/>
      <point x="227" y="8" type="curve" smooth="yes"/>
      <point x="361" y="8"/>
      <point x="478" y="105"/>
      <point x="478" y="277" type="curve" smooth="yes"/>
      <point x="478" y="385"/>
      <point x="408" y="480"/>
      <point x="281" y="480" type="curve" smooth="yes"/>
      <point x="210" y="480"/>
      <point x="151" y="448"/>
      <point x="94" y="378" type="curve"/>
      <point x="77" y="386" type="line"/>
      <point x="152" y="730" type="line"/>
    </contour>
  </outline>
</glyph>
<glyph name="six" format="1">
  <advance width="580"/>
  <unicode hex="0036"/>
  <outline>
    <contour>
      <point x="517" y="280" type="curve" smooth="yes"/>
      <point x="517" y="139"/>
      <point x="394" y="-12"/>
      <point x="228" y="-12" type="curve" smooth="yes"/>
      <point x="103" y="-12"/>
      <point x="6" y="61"/>
      <point x="6" y="196" type="curve" smooth="yes"/>
      <point x="6" y="421"/>
      <point x="249" y="661"/>
      <point x="383" y="730" type="curve"/>
      <point x="415" y="730" type="line"/>
      <point x="266" y="644"/>
      <point x="138" y="510"/>
      <point x="64" y="362" type="curve"/>
      <point x="121" y="442"/>
      <point x="215" y="485"/>
      <point x="299" y="485" type="curve" smooth="yes"/>
      <point x="431" y="485"/>
      <point x="517" y="402"/>
    </contour>
    <contour>
      <point x="496" y="285" type="curve" smooth="yes"/>
      <point x="496" y="389"/>
      <point x="421" y="465"/>
      <point x="295" y="465" type="curve" smooth="yes"/>
      <point x="164" y="465"/>
      <point x="27" y="352"/>
      <point x="27" y="203" type="curve" smooth="yes"/>
      <point x="27" y="86"/>
      <point x="94" y="8"/>
      <point x="230" y="8" type="curve" smooth="yes"/>
      <point x="390" y="8"/>
      <point x="496" y="158"/>
    </contour>
  </outline>
</glyph>
<glyph name="seven" format="1">
  <advance width="504"/>
  <unicode hex="0037"/>
  <outline>
    <contour>
      <point x="530" y="730" type="line"/>
      <point x="19" y="0" type="line"/>
      <point x="-7" y="0" type="line"/>
      <point x="490" y="709" type="line"/>
      <point x="100" y="709" type="line"/>
      <point x="106" y="730" type="line"/>
    </contour>
  </outline>
</glyph>
<glyph name="eight" format="1">
  <advance width="611"/>
  <unicode hex="0038"/>
  <outline>
    <contour>
      <point x="209" y="404" type="curve"/>
      <point x="142" y="436"/>
      <point x="116" y="494"/>
      <point x="116" y="556" type="curve" smooth="yes"/>
      <point x="116" y="654"/>
      <point x="188" y="743"/>
      <point x="342" y="743" type="curve" smooth="yes"/>
      <point x="480" y="743"/>
      <point x="558" y="677"/>
      <point x="558" y="578" type="curve" smooth="yes"/>
      <point x="558" y="479"/>
      <point x="495" y="412"/>
      <point x="404" y="389" type="curve"/>
      <point x="495" y="357"/>
      <point x="544" y="289"/>
      <point x="544" y="203" type="curve" smooth="yes"/>
      <point x="544" y="82"/>
      <point x="433" y="-13"/>
      <point x="263" y="-13" type="curve" smooth="yes"/>
      <point x="129" y="-13"/>
      <point x="2" y="60"/>
      <point x="2" y="187" type="curve" smooth="yes"/>
      <point x="2" y="294"/>
      <point x="77" y="382"/>
    </contour>
    <contour>
      <point x="138" y="556" type="curve" smooth="yes"/>
      <point x="138" y="474"/>
      <point x="192" y="403"/>
      <point x="332" y="403" type="curve" smooth="yes"/>
      <point x="447" y="403"/>
      <point x="536" y="466"/>
      <point x="536" y="578" type="curve" smooth="yes"/>
      <point x="536" y="665"/>
      <point x="464" y="721"/>
      <point x="342" y="721" type="curve" smooth="yes"/>
      <point x="204" y="721"/>
      <point x="138" y="644"/>
    </contour>
    <contour>
      <point x="24" y="187" type="curve" smooth="yes"/>
      <point x="24" y="72"/>
      <point x="141" y="9"/>
      <point x="263" y="9" type="curve" smooth="yes"/>
      <point x="419" y="9"/>
      <point x="522" y="92"/>
      <point x="522" y="203" type="curve" smooth="yes"/>
      <point x="522" y="311"/>
      <point x="436" y="384"/>
      <point x="285" y="388" type="curve" smooth="yes"/>
      <point x="122" y="392"/>
      <point x="24" y="303"/>
    </contour>
  </outline>
</glyph>
<glyph name="nine" format="1">
  <advance width="579"/>
  <unicode hex="0039"/>
  <outline>
    <contour>
      <point x="552" y="525" type="curve" smooth="yes"/>
      <point x="552" y="280"/>
      <point x="306" y="42"/>
      <point x="185" y="-18" type="curve"/>
      <point x="181" y="2" type="line"/>
      <point x="305" y="74"/>
      <point x="430" y="210"/>
      <point x="492" y="342" type="curve"/>
      <point x="434" y="252"/>
      <point x="345" y="223"/>
      <point x="267" y="223" type="curve" smooth="yes"/>
      <point x="160" y="223"/>
      <point x="48" y="301"/>
      <point x="48" y="445" type="curve" smooth="yes"/>
      <point x="48" y="628"/>
      <point x="200" y="740"/>
      <point x="330" y="740" type="curve" smooth="yes"/>
      <point x="470" y="740"/>
      <point x="552" y="645"/>
    </contour>
    <contour>
      <point x="530" y="524" type="curve" smooth="yes"/>
      <point x="530" y="644"/>
      <point x="445" y="719"/>
      <point x="326" y="719" type="curve" smooth="yes"/>
      <point x="196" y="719"/>
      <point x="70" y="601"/>
      <point x="70" y="445" type="curve" smooth="yes"/>
      <point x="70" y="307"/>
      <point x="175" y="243"/>
      <point x="276" y="243" type="curve" smooth="yes"/>
      <point x="424" y="243"/>
      <point x="530" y="368"/>
    </contour>
  </outline>
</glyph>
<glyph name="colon" format="1">
  <advance width="157"/>
  <unicode hex="003A"/>
  <outline>
    <contour>
      <point x="100" y="430" type="line"/>
      <point x="88" y="359" type="line"/>
      <point x="66" y="359" type="line"/>
      <point x="78" y="430" type="line"/>
    </contour>
    <contour>
      <point x="37" y="71" type="line"/>
      <point x="24" y="0" type="line"/>
      <point x="2" y="0" type="line"/>
      <point x="15" y="71" type="line"/>
    </contour>
  </outline>
</glyph>
<glyph name="semicolon" format="1">
  <advance width="152"/>
  <unicode hex="003B"/>
  <outline>
    <contour>
      <point x="100" y="430" type="line"/>
      <point x="88" y="360" type="line"/>
      <point x="66" y="360" type="line"/>
      <point x="78" y="430" type="line"/>
    </contour>
    <contour>
      <point x="36" y="67" type="line"/>
      <point x="24" y="0" type="line" smooth="yes"/>
      <point x="13" y="-60"/>
      <point x="-11" y="-109"/>
      <point x="-50" y="-148" type="curve"/>
      <point x="-66" y="-148" type="line"/>
      <point x="-17" y="-91"/>
      <point x="-2" y="-38"/>
      <point x="4" y="3" type="curve" smooth="yes"/>
      <point x="14" y="67" type="line"/>
    </contour>
  </outline>
</glyph>
<glyph name="less" format="1">
  <advance width="375"/>
  <unicode hex="003C"/>
  <outline>
    <contour>
      <point x="342" y="545" type="line"/>
      <point x="337" y="519" type="line"/>
      <point x="48" y="322" type="line"/>
      <point x="268" y="127" type="line"/>
      <point x="264" y="102" type="line"/>
      <point x="29" y="311" type="line"/>
      <point x="33" y="336" type="line"/>
    </contour>
  </outline>
</glyph>
<glyph name="equal" format="1">
  <advance width="482"/>
  <unicode hex="003D"/>
  <outline>
    <contour>
      <point x="421" y="410" type="line"/>
      <point x="416" y="388" type="line"/>
      <point x="69" y="388" type="line"/>
      <point x="74" y="410" type="line"/>
    </contour>
    <contour>
      <point x="397" y="278" type="line"/>
      <point x="393" y="256" type="line"/>
      <point x="46" y="256" type="line"/>
      <point x="51" y="278" type="line"/>
    </contour>
  </outline>
</glyph>
<glyph name="greater" format="1">
  <advance width="375"/>
  <unicode hex="003E"/>
  <outline>
    <contour>
      <point x="19" y="102" type="line"/>
      <point x="24" y="127" type="line"/>
      <point x="313" y="325" type="line"/>
      <point x="93" y="520" type="line"/>
      <point x="97" y="545" type="line"/>
      <point x="332" y="336" type="line"/>
      <point x="328" y="311" type="line"/>
    </contour>
  </outline>
</glyph>
<glyph name="question" format="1">
  <advance width="435"/>
  <unicode hex="003F"/>
  <outline>
    <contour>
      <point x="422" y="591" type="curve" smooth="yes"/>
      <point x="422" y="527"/>
      <point x="383" y="469"/>
      <point x="298" y="380" type="curve" smooth="yes"/>
      <point x="220" y="298"/>
      <point x="182" y="248"/>
      <point x="170" y="176" type="curve" smooth="yes"/>
      <point x="160" y="118" type="line"/>
      <point x="138" y="118" type="line"/>
      <point x="148" y="176" type="line" smooth="yes"/>
      <point x="161" y="249"/>
      <point x="191" y="295"/>
      <point x="284" y="395" type="curve" smooth="yes"/>
      <point x="378" y="495"/>
      <point x="400" y="536"/>
      <point x="400" y="596" type="curve" smooth="yes"/>
      <point x="400" y="665"/>
      <point x="338" y="722"/>
      <point x="256" y="722" type="curve" smooth="yes"/>
      <point x="196" y="722"/>
      <point x="145" y="697"/>
      <point x="105" y="641" type="curve"/>
      <point x="88" y="652" type="line"/>
      <point x="133" y="718"/>
      <point x="198" y="742"/>
      <point x="256" y="742" type="curve" smooth="yes"/>
      <point x="358" y="742"/>
      <point x="422" y="670"/>
    </contour>
    <contour>
      <point x="153" y="72" type="line"/>
      <point x="140" y="0" type="line"/>
      <point x="118" y="0" type="line"/>
      <point x="131" y="72" type="line"/>
    </contour>
  </outline>
</glyph>
<glyph name="at" format="1">
  <advance width="848"/>
  <unicode hex="0040"/>
  <outline>
    <contour>
      <point x="553" y="240" type="curve"/>
      <point x="512" y="202"/>
      <point x="464" y="172"/>
      <point x="393" y="172" type="curve" smooth="yes"/>
      <point x="322" y="172"/>
      <point x="259" y="206"/>
      <point x="259" y="289" type="curve" smooth="yes"/>
      <point x="259" y="383"/>
      <point x="340" y="425"/>
      <point x="457" y="425" type="curve" smooth="yes"/>
      <point x="553" y="425" type="line"/>
      <point x="553" y="467" type="line" smooth="yes"/>
      <point x="553" y="535"/>
      <point x="513" y="569"/>
      <point x="438" y="569" type="curve" smooth="yes"/>
      <point x="380" y="569"/>
      <point x="341" y="555"/>
      <point x="306" y="537" type="curve"/>
      <point x="297" y="556" type="line"/>
      <point x="337" y="576"/>
      <point x="377" y="589"/>
      <point x="439" y="589" type="curve" smooth="yes"/>
      <point x="530" y="589"/>
      <point x="575" y="545"/>
      <point x="575" y="468" type="curve" smooth="yes"/>
      <point x="575" y="468"/>
      <point x="575" y="275"/>
      <point x="575" y="238" type="curve" smooth="yes"/>
      <point x="575" y="203"/>
      <point x="593" y="181"/>
      <point x="638" y="181" type="curve" smooth="yes"/>
      <point x="705" y="181"/>
      <point x="767" y="255"/>
      <point x="767" y="395" type="curve" smooth="yes"/>
      <point x="767" y="575"/>
      <point x="632" y="722"/>
      <point x="418" y="722" type="curve" smooth="yes"/>
      <point x="222" y="722"/>
      <point x="69" y="561"/>
      <point x="69" y="365" type="curve" smooth="yes"/>
      <point x="69" y="169"/>
      <point x="222" y="8"/>
      <point x="418" y="8" type="curve" smooth="yes"/>
      <point x="462" y="8"/>
      <point x="513" y="15"/>
      <point x="566" y="39" type="curve"/>
      <point x="575" y="20" type="line"/>
      <point x="518" y="-6"/>
      <point x="465" y="-12"/>
      <point x="418" y="-12" type="curve" smooth="yes"/>
      <point x="210" y="-12"/>
      <point x="47" y="157"/>
      <point x="47" y="365" type="curve" smooth="yes"/>
      <point x="47" y="573"/>
      <point x="210" y="742"/>
      <point x="418" y="742" type="curve" smooth="yes"/>
      <point x="646" y="742"/>
      <point x="789" y="587"/>
      <point x="789" y="395" type="curve" smooth="yes"/>
      <point x="789" y="239"/>
      <point x="715" y="161"/>
      <point x="637" y="161" type="curve" smooth="yes"/>
      <point x="575" y="161"/>
      <point x="553" y="198"/>
    </contour>
    <contour>
      <point x="553" y="264" type="curve"/>
      <point x="553" y="405" type="line"/>
      <point x="457" y="405" type="line" smooth="yes"/>
      <point x="354" y="405"/>
      <point x="281" y="371"/>
      <point x="281" y="290" type="curve" smooth="yes"/>
      <point x="281" y="222"/>
      <point x="332" y="192"/>
      <point x="394" y="192" type="curve" smooth="yes"/>
      <point x="456" y="192"/>
      <point x="508" y="221"/>
    </contour>
  </outline>
</glyph>
<glyph name="A" format="1">
  <advance width="583"/>
  <unicode hex="0041"/>
  <outline>
    <contour>
      <point x="-33" y="0" type="line"/>
      <point x="354" y="748" type="line"/>
      <point x="368" y="748" type="line"/>
      <point x="499" y="0" type="line"/>
      <point x="477" y="0" type="line"/>
      <point x="426" y="290" type="line"/>
      <point x="141" y="290" type="line"/>
      <point x="-9" y="0" type="line"/>
    </contour>
    <contour>
      <point x="151" y="310" type="line"/>
      <point x="422" y="310" type="line"/>
      <point x="354" y="703" type="line"/>
    </contour>
  </outline>
</glyph>
<glyph name="B" format="1">
  <advance width="581"/>
  <unicode hex="0042"/>
  <outline>
    <contour>
      <point x="506" y="571" type="curve" smooth="yes"/>
      <point x="506" y="487"/>
      <point x="458" y="407"/>
      <point x="358" y="385" type="curve"/>
      <point x="440" y="369"/>
      <point x="497" y="325"/>
      <point x="497" y="220" type="curve" smooth="yes"/>
      <point x="497" y="50"/>
      <point x="363" y="0"/>
      <point x="228" y="0" type="curve" smooth="yes"/>
      <point x="21" y="0" type="line"/>
      <point x="145" y="730" type="line"/>
      <point x="306" y="730" type="line" smooth="yes"/>
      <point x="442" y="730"/>
      <point x="506" y="666"/>
    </contour>
    <contour>
      <point x="486" y="573" type="curve" smooth="yes"/>
      <point x="486" y="651"/>
      <point x="426" y="711"/>
      <point x="306" y="711" type="curve" smooth="yes"/>
      <point x="162" y="711" type="line"/>
      <point x="109" y="394" type="line"/>
      <point x="290" y="394" type="line" smooth="yes"/>
      <point x="412" y="394"/>
      <point x="486" y="468"/>
    </contour>
    <contour>
      <point x="477" y="211" type="curve" smooth="yes"/>
      <point x="477" y="322"/>
      <point x="417" y="374"/>
      <point x="279" y="374" type="curve" smooth="yes"/>
      <point x="106" y="374" type="line"/>
      <point x="46" y="20" type="line"/>
      <point x="225" y="20" type="line" smooth="yes"/>
      <point x="366" y="20"/>
      <point x="477" y="75"/>
    </contour>
  </outline>
</glyph>
<glyph name="C" format="1">
  <advance width="697"/>
  <unicode hex="0043"/>
  <outline>
    <contour>
      <point x="660" y="603" type="line"/>
      <point x="615" y="678"/>
      <point x="535" y="722"/>
      <point x="432" y="722" type="curve" smooth="yes"/>
      <point x="201" y="722"/>
      <point x="66" y="506"/>
      <point x="66" y="317" type="curve" smooth="yes"/>
      <point x="66" y="127"/>
      <point x="204" y="8"/>
      <point x="348" y="8" type="curve" smooth="yes"/>
      <point x="461" y="8"/>
      <point x="539" y="58"/>
      <point x="590" y="106" type="curve"/>
      <point x="604" y="90" type="line"/>
      <point x="550" y="39"/>
      <point x="466" y="-12"/>
      <point x="346" y="-12" type="curve" smooth="yes"/>
      <point x="193" y="-12"/>
      <point x="45" y="112"/>
      <point x="45" y="317" type="curve" smooth="yes"/>
      <point x="45" y="516"/>
      <point x="187" y="742"/>
      <point x="432" y="742" type="curve" smooth="yes"/>
      <point x="550" y="742"/>
      <point x="636" y="689"/>
      <point x="678" y="614" type="curve"/>
    </contour>
  </outline>
</glyph>
<glyph name="D" format="1">
  <advance width="623"/>
  <unicode hex="0044"/>
  <outline>
    <contour>
      <point x="140" y="0" type="curve" smooth="yes"/>
      <point x="21" y="0" type="line"/>
      <point x="146" y="730" type="line"/>
      <point x="257" y="730" type="line" smooth="yes"/>
      <point x="456" y="730"/>
      <point x="588" y="604"/>
      <point x="588" y="421" type="curve" smooth="yes"/>
      <point x="588" y="145"/>
      <point x="375" y="0"/>
    </contour>
    <contour>
      <point x="256" y="710" type="curve" smooth="yes"/>
      <point x="163" y="710" type="line"/>
      <point x="46" y="20" type="line"/>
      <point x="140" y="20" type="line" smooth="yes"/>
      <point x="366" y="20"/>
      <point x="567" y="159"/>
      <point x="567" y="421" type="curve" smooth="yes"/>
      <point x="567" y="592"/>
      <point x="443" y="710"/>
    </contour>
  </outline>
</glyph>
<glyph name="E" format="1">
  <advance width="497"/>
  <unicode hex="0045"/>
  <outline>
    <contour>
      <point x="491" y="730" type="line"/>
      <point x="488" y="710" type="line"/>
      <point x="162" y="710" type="line"/>
      <point x="109" y="395" type="line"/>
      <point x="390" y="395" type="line"/>
      <point x="387" y="375" type="line"/>
      <point x="106" y="375" type="line"/>
      <point x="46" y="20" type="line"/>
      <point x="388" y="20" type="line"/>
      <point x="385" y="0" type="line"/>
      <point x="21" y="0" type="line"/>
      <point x="145" y="730" type="line"/>
    </contour>
  </outline>
</glyph>
<glyph name="F" format="1">
  <advance width="425"/>
  <unicode hex="0046"/>
  <outline>
    <contour>
      <point x="453" y="730" type="line"/>
      <point x="450" y="711" type="line"/>
      <point x="162" y="711" type="line"/>
      <point x="108" y="390" type="line"/>
      <point x="364" y="390" type="line"/>
      <point x="361" y="371" type="line"/>
      <point x="105" y="371" type="line"/>
      <point x="42" y="0" type="line"/>
      <point x="21" y="0" type="line"/>
      <point x="145" y="730" type="line"/>
    </contour>
  </outline>
</glyph>
<glyph name="G" format="1">
  <advance width="795"/>
  <unicode hex="0047"/>
  <outline>
    <contour>
      <point x="439" y="723" type="curve" smooth="yes"/>
      <point x="222" y="723"/>
      <point x="67" y="538"/>
      <point x="67" y="307" type="curve" smooth="yes"/>
      <point x="67" y="127"/>
      <point x="201" y="8"/>
      <point x="359" y="8" type="curve" smooth="yes"/>
      <point x="509" y="8"/>
      <point x="645" y="87"/>
      <point x="713" y="254" type="curve"/>
      <point x="465" y="254" type="line"/>
      <point x="465" y="274" type="line"/>
      <point x="744" y="274" type="line"/>
      <point x="669" y="73"/>
      <point x="520" y="-12"/>
      <point x="359" y="-12" type="curve" smooth="yes"/>
      <point x="189" y="-12"/>
      <point x="46" y="113"/>
      <point x="46" y="307" type="curve" smooth="yes"/>
      <point x="46" y="555"/>
      <point x="214" y="743"/>
      <point x="439" y="743" type="curve" smooth="yes"/>
      <point x="574" y="743"/>
      <point x="661" y="697"/>
      <point x="722" y="611" type="curve"/>
      <point x="705" y="598" type="line"/>
      <point x="648" y="679"/>
      <point x="565" y="723"/>
    </contour>
  </outline>
</glyph>
<glyph name="H" format="1">
  <advance width="662"/>
  <unicode hex="0048"/>
  <outline>
    <contour>
      <point x="644" y="730" type="line"/>
      <point x="520" y="0" type="line"/>
      <point x="499" y="0" type="line"/>
      <point x="564" y="379" type="line"/>
      <point x="106" y="379" type="line"/>
      <point x="43" y="0" type="line"/>
      <point x="21" y="0" type="line"/>
      <point x="145" y="730" type="line"/>
      <point x="166" y="730" type="line"/>
      <point x="109" y="399" type="line"/>
      <point x="567" y="399" type="line"/>
      <point x="623" y="730" type="line"/>
    </contour>
  </outline>
</glyph>
<glyph name="J" format="1">
  <advance width="318"/>
  <unicode hex="004A"/>
  <outline>
    <contour>
      <point x="306" y="730" type="line"/>
      <point x="212" y="181" type="line" smooth="yes"/>
      <point x="186" y="30"/>
      <point x="87" y="-6"/>
      <point x="-4" y="-6" type="curve" smooth="yes"/>
      <point x="-43" y="-6" type="line"/>
      <point x="-37" y="14" type="line"/>
      <point x="-26" y="14"/>
      <point x="-10" y="14"/>
      <point x="2" y="14" type="curve" smooth="yes"/>
      <point x="94" y="14"/>
      <point x="171" y="65"/>
      <point x="191" y="181" type="curve" smooth="yes"/>
      <point x="285" y="730" type="line"/>
    </contour>
  </outline>
</glyph>
<glyph name="K" format="1">
  <advance width="511"/>
  <unicode hex="004B"/>
  <outline>
    <contour>
      <point x="511" y="730" type="line"/>
      <point x="179" y="418" type="line"/>
      <point x="407" y="0" type="line"/>
      <point x="384" y="0" type="line"/>
      <point x="163" y="403" type="line"/>
      <point x="102" y="347" type="line"/>
      <point x="42" y="0" type="line"/>
      <point x="21" y="0" type="line"/>
      <point x="145" y="730" type="line"/>
      <point x="166" y="730" type="line"/>
      <point x="105" y="375" type="line"/>
      <point x="483" y="730" type="line"/>
    </contour>
  </outline>
</glyph>
<glyph name="L" format="1">
  <advance width="483"/>
  <unicode hex="004C"/>
  <outline>
    <contour>
      <point x="396" y="20" type="line"/>
      <point x="394" y="0" type="line"/>
      <point x="21" y="0" type="line"/>
      <point x="145" y="730" type="line"/>
      <point x="166" y="730" type="line"/>
      <point x="46" y="20" type="line"/>
    </contour>
  </outline>
</glyph>
<glyph name="M" format="1">
  <advance width="724"/>
  <unicode hex="004D"/>
  <outline>
    <contour>
      <point x="684" y="730" type="line"/>
      <point x="704" y="730" type="line"/>
      <point x="581" y="0" type="line"/>
      <point x="560" y="0" type="line"/>
      <point x="675" y="685" type="line"/>
      <point x="356" y="294" type="line"/>
      <point x="341" y="294" type="line"/>
      <point x="159" y="689" type="line"/>
      <point x="42" y="0" type="line"/>
      <point x="21" y="0" type="line"/>
      <point x="145" y="730" type="line"/>
      <point x="164" y="730" type="line"/>
      <point x="351" y="320" type="line"/>
    </contour>
  </outline>
</glyph>
<glyph name="N" format="1">
  <advance width="718"/>
  <unicode hex="004E"/>
  <outline>
    <contour>
      <point x="695" y="730" type="line"/>
      <point x="573" y="0" type="line"/>
      <point x="556" y="0" type="line"/>
      <point x="157" y="692" type="line"/>
      <point x="41" y="0" type="line"/>
      <point x="20" y="0" type="line"/>
      <point x="142" y="730" type="line"/>
      <point x="159" y="730" type="line"/>
      <point x="559" y="37" type="line"/>
      <point x="674" y="730" type="line"/>
    </contour>
  </outline>
</glyph>
<glyph name="O" format="1">
  <advance width="780"/>
  <unicode hex="004F"/>
  <outline>
    <contour>
      <point x="45" y="307" type="curve" smooth="yes"/>
      <point x="45" y="535"/>
      <point x="202" y="742"/>
      <point x="426" y="742" type="curve" smooth="yes"/>
      <point x="603" y="742"/>
      <point x="735" y="598"/>
      <point x="735" y="423" type="curve" smooth="yes"/>
      <point x="735" y="195"/>
      <point x="579" y="-12"/>
      <point x="354" y="-12" type="curve" smooth="yes"/>
      <point x="172" y="-12"/>
      <point x="45" y="132"/>
    </contour>
    <contour>
      <point x="354" y="8" type="curve" smooth="yes"/>
      <point x="567" y="8"/>
      <point x="714" y="207"/>
      <point x="714" y="423" type="curve" smooth="yes"/>
      <point x="714" y="588"/>
      <point x="590" y="722"/>
      <point x="426" y="722" type="curve" smooth="yes"/>
      <point x="213" y="722"/>
      <point x="66" y="521"/>
      <point x="66" y="307" type="curve" smooth="yes"/>
      <point x="66" y="145"/>
      <point x="184" y="8"/>
    </contour>
  </outline>
</glyph>
<glyph name="P" format="1">
  <advance width="498"/>
  <unicode hex="0050"/>
  <outline>
    <contour>
      <point x="236" y="329" type="curve" smooth="yes"/>
      <point x="98" y="329" type="line"/>
      <point x="41" y="0" type="line"/>
      <point x="20" y="0" type="line"/>
      <point x="144" y="730" type="line"/>
      <point x="265" y="730" type="line" smooth="yes"/>
      <point x="421" y="730"/>
      <point x="492" y="670"/>
      <point x="492" y="554" type="curve" smooth="yes"/>
      <point x="492" y="432"/>
      <point x="406" y="329"/>
    </contour>
    <contour>
      <point x="258" y="710" type="curve" smooth="yes"/>
      <point x="162" y="710" type="line"/>
      <point x="101" y="349" type="line"/>
      <point x="233" y="349" type="line" smooth="yes"/>
      <point x="397" y="349"/>
      <point x="471" y="445"/>
      <point x="471" y="556" type="curve" smooth="yes"/>
      <point x="471" y="654"/>
      <point x="408" y="710"/>
    </contour>
  </outline>
</glyph>
<glyph name="Q" format="1">
  <advance width="780"/>
  <unicode hex="0051"/>
  <outline>
    <contour>
      <point x="529" y="35" type="curve"/>
      <point x="551" y="16"/>
      <point x="574" y="1"/>
      <point x="589" y="-5" type="curve"/>
      <point x="568" y="-17" type="line"/>
      <point x="552" y="-7"/>
      <point x="531" y="7"/>
      <point x="510" y="25" type="curve"/>
      <point x="464" y="1"/>
      <point x="411" y="-12"/>
      <point x="354" y="-12" type="curve" smooth="yes"/>
      <point x="172" y="-12"/>
      <point x="45" y="132"/>
      <point x="45" y="307" type="curve" smooth="yes"/>
      <point x="45" y="535"/>
      <point x="202" y="742"/>
      <point x="426" y="742" type="curve" smooth="yes"/>
      <point x="603" y="742"/>
      <point x="735" y="598"/>
      <point x="735" y="423" type="curve" smooth="yes"/>
      <point x="735" y="261"/>
      <point x="656" y="109"/>
    </contour>
    <contour>
      <point x="511" y="48" type="curve"/>
      <point x="636" y="117"/>
      <point x="714" y="265"/>
      <point x="714" y="423" type="curve" smooth="yes"/>
      <point x="714" y="586"/>
      <point x="591" y="722"/>
      <point x="426" y="722" type="curve" smooth="yes"/>
      <point x="213" y="722"/>
      <point x="66" y="523"/>
      <point x="66" y="307" type="curve" smooth="yes"/>
      <point x="66" y="144"/>
      <point x="185" y="8"/>
      <point x="354" y="8" type="curve" smooth="yes"/>
      <point x="405" y="8"/>
      <point x="451" y="19"/>
      <point x="493" y="39" type="curve"/>
      <point x="474" y="59"/>
      <point x="457" y="83"/>
      <point x="444" y="109" type="curve"/>
      <point x="462" y="113" type="line"/>
      <point x="474" y="89"/>
      <point x="490" y="68"/>
    </contour>
  </outline>
</glyph>
<glyph name="R" format="1">
  <advance width="507"/>
  <unicode hex="0052"/>
  <outline>
    <contour>
      <point x="41" y="0" type="line"/>
      <point x="20" y="0" type="line"/>
      <point x="144" y="730" type="line"/>
      <point x="262" y="730" type="line" smooth="yes"/>
      <point x="420" y="730"/>
      <point x="492" y="667"/>
      <point x="492" y="553" type="curve" smooth="yes"/>
      <point x="492" y="439"/>
      <point x="408" y="331"/>
      <point x="227" y="331" type="curve" smooth="yes"/>
      <point x="147" y="331" type="line"/>
      <point x="388" y="0" type="line"/>
      <point x="361" y="0" type="line"/>
      <point x="108" y="351" type="line"/>
      <point x="227" y="351" type="line" smooth="yes"/>
      <point x="381" y="351"/>
      <point x="471" y="434"/>
      <point x="471" y="556" type="curve" smooth="yes"/>
      <point x="471" y="664"/>
      <point x="394" y="710"/>
      <point x="255" y="710" type="curve" smooth="yes"/>
      <point x="162" y="710" type="line"/>
    </contour>
  </outline>
</glyph>
<glyph name="S" format="1">
  <advance width="457"/>
  <unicode hex="0053"/>
  <outline>
    <contour>
      <point x="419" y="646" type="line"/>
      <point x="384" y="704"/>
      <point x="329" y="726"/>
      <point x="270" y="726" type="curve" smooth="yes"/>
      <point x="186" y="726"/>
      <point x="107" y="667"/>
      <point x="107" y="568" type="curve" smooth="yes"/>
      <point x="107" y="504"/>
      <point x="132" y="458"/>
      <point x="246" y="384" type="curve" smooth="yes"/>
      <point x="355" y="313"/>
      <point x="389" y="259"/>
      <point x="389" y="180" type="curve" smooth="yes"/>
      <point x="389" y="34"/>
      <point x="269" y="-13"/>
      <point x="180" y="-13" type="curve" smooth="yes"/>
      <point x="102" y="-13"/>
      <point x="38" y="21"/>
      <point x="1" y="69" type="curve"/>
      <point x="15" y="84" type="line"/>
      <point x="49" y="40"/>
      <point x="109" y="7"/>
      <point x="180" y="7" type="curve" smooth="yes"/>
      <point x="266" y="7"/>
      <point x="368" y="55"/>
      <point x="368" y="180" type="curve" smooth="yes"/>
      <point x="368" y="251"/>
      <point x="334" y="301"/>
      <point x="234" y="366" type="curve" smooth="yes"/>
      <point x="111" y="446"/>
      <point x="85" y="498"/>
      <point x="85" y="568" type="curve" smooth="yes"/>
      <point x="85" y="681"/>
      <point x="175" y="746"/>
      <point x="270" y="746" type="curve" smooth="yes"/>
      <point x="336" y="746"/>
      <point x="397" y="722"/>
      <point x="436" y="658" type="curve"/>
    </contour>
  </outline>
</glyph>
<glyph name="T" format="1">
  <advance width="465"/>
  <unicode hex="0054"/>
  <outline>
    <contour>
      <point x="501" y="730" type="line"/>
      <point x="497" y="710" type="line"/>
      <point x="306" y="710" type="line"/>
      <point x="185" y="0" type="line"/>
      <point x="164" y="0" type="line"/>
      <point x="285" y="710" type="line"/>
      <point x="89" y="710" type="line"/>
      <point x="93" y="730" type="line"/>
    </contour>
  </outline>
</glyph>
<glyph name="U" format="1">
  <advance width="640"/>
  <unicode hex="0055"/>
  <outline>
    <contour>
      <point x="627" y="730" type="line"/>
      <point x="546" y="253" type="line" smooth="yes"/>
      <point x="517" y="81"/>
      <point x="397" y="-12"/>
      <point x="273" y="-12" type="curve" smooth="yes"/>
      <point x="145" y="-12"/>
      <point x="30" y="82"/>
      <point x="62" y="272" type="curve" smooth="yes"/>
      <point x="139" y="730" type="line"/>
      <point x="161" y="730" type="line"/>
      <point x="84" y="269" type="line" smooth="yes"/>
      <point x="55" y="96"/>
      <point x="156" y="9"/>
      <point x="273" y="9" type="curve" smooth="yes"/>
      <point x="389" y="9"/>
      <point x="498" y="96"/>
      <point x="525" y="257" type="curve" smooth="yes"/>
      <point x="605" y="730" type="line"/>
    </contour>
  </outline>
</glyph>
<glyph name="V" format="1">
  <advance width="646"/>
  <unicode hex="0056"/>
  <outline>
    <contour>
      <point x="676" y="730" type="line"/>
      <point x="269" y="0" type="line"/>
      <point x="252" y="0" type="line"/>
      <point x="92" y="730" type="line"/>
      <point x="113" y="730" type="line"/>
      <point x="266" y="36" type="line"/>
      <point x="652" y="730" type="line"/>
    </contour>
  </outline>
</glyph>
<glyph name="W" format="1">
  <advance width="900"/>
  <unicode hex="0057"/>
  <outline>
    <contour>
      <point x="915" y="730" type="line"/>
      <point x="578" y="0" type="line"/>
      <point x="564" y="0" type="line"/>
      <point x="503" y="675" type="line"/>
      <point x="209" y="0" type="line"/>
      <point x="197" y="0" type="line"/>
      <point x="92" y="730" type="line"/>
      <point x="113" y="730" type="line"/>
      <point x="210" y="52" type="line"/>
      <point x="506" y="730" type="line"/>
      <point x="518" y="730" type="line"/>
      <point x="580" y="52" type="line"/>
      <point x="892" y="730" type="line"/>
    </contour>
  </outline>
</glyph>
<glyph name="X" format="1">
  <advance width="655"/>
  <unicode hex="0058"/>
  <outline>
    <contour>
      <point x="314" y="400" type="line"/>
      <point x="140" y="730" type="line"/>
      <point x="163" y="730" type="line"/>
      <point x="328" y="417" type="line"/>
      <point x="598" y="730" type="line"/>
      <point x="624" y="730" type="line"/>
      <point x="338" y="398" type="line"/>
      <point x="549" y="0" type="line"/>
      <point x="526" y="0" type="line"/>
      <point x="324" y="381" type="line"/>
      <point x="-4" y="0" type="line"/>
      <point x="-30" y="0" type="line"/>
    </contour>
  </outline>
</glyph>
<glyph name="Y" format="1">
  <advance width="599"/>
  <unicode hex="0059"/>
  <outline>
    <contour>
      <point x="624" y="730" type="line"/>
      <point x="305" y="359" type="line"/>
      <point x="247" y="0" type="line"/>
      <point x="226" y="0" type="line"/>
      <point x="286" y="360" type="line"/>
      <point x="94" y="730" type="line"/>
      <point x="116" y="730" type="line"/>
      <point x="299" y="379" type="line"/>
      <point x="600" y="730" type="line"/>
    </contour>
  </outline>
</glyph>
<glyph name="Z" format="1">
  <advance width="607"/>
  <unicode hex="005A"/>
  <outline>
    <contour>
      <point x="615" y="730" type="line"/>
      <point x="30" y="20" type="line"/>
      <point x="497" y="20" type="line"/>
      <point x="494" y="0" type="line"/>
      <point x="-13" y="0" type="line"/>
      <point x="574" y="710" type="line"/>
      <point x="156" y="710" type="line"/>
      <point x="158" y="730" type="line"/>
    </contour>
  </outline>
</glyph>
<glyph name="bracketleft" format="1">
  <advance width="228"/>
  <unicode hex="005B"/>
  <outline>
    <contour>
      <point x="267" y="730" type="line"/>
      <point x="263" y="710" type="line"/>
      <point x="158" y="710" type="line"/>
      <point x="5" y="-159" type="line"/>
      <point x="111" y="-159" type="line"/>
      <point x="106" y="-179" type="line"/>
      <point x="-22" y="-179" type="line"/>
      <point x="140" y="730" type="line"/>
    </contour>
  </outline>
</glyph>
<glyph name="backslash" format="1">
  <advance width="379"/>
  <unicode hex="005C"/>
  <outline>
    <contour>
      <point x="257" y="0" type="line"/>
      <point x="235" y="0" type="line"/>
      <point x="123" y="730" type="line"/>
      <point x="145" y="730" type="line"/>
    </contour>
  </outline>
</glyph>
<glyph name="bracketright" format="1">
  <advance width="225"/>
  <unicode hex="005D"/>
  <outline>
    <contour>
      <point x="217" y="730" type="line"/>
      <point x="55" y="-179" type="line"/>
      <point x="-72" y="-179" type="line"/>
      <point x="-68" y="-159" type="line"/>
      <point x="37" y="-159" type="line"/>
      <point x="190" y="710" type="line"/>
      <point x="84" y="710" type="line"/>
      <point x="89" y="730" type="line"/>
    </contour>
  </outline>
</glyph>
<glyph name="asciicircum" format="1">
  <advance width="458"/>
  <unicode hex="005E"/>
  <outline>
    <contour>
      <point x="414" y="369" type="line"/>
      <point x="394" y="369" type="line"/>
      <point x="284" y="704" type="line"/>
      <point x="55" y="369" type="line"/>
      <point x="34" y="369" type="line"/>
      <point x="280" y="730" type="line"/>
      <point x="296" y="730" type="line"/>
    </contour>
  </outline>
</glyph>
<glyph name="underscore" format="1">
  <advance width="500"/>
  <unicode hex="005F"/>
  <outline>
    <contour>
      <point x="421" y="-89" type="line"/>
      <point x="-88" y="-89" type="line"/>
      <point x="-84" y="-67" type="line"/>
      <point x="425" y="-67" type="line"/>
    </contour>
  </outline>
</glyph>
<glyph name="grave" format="1">
  <advance width="410"/>
  <unicode hex="0060"/>
  <outline>
    <contour>
      <point x="245" y="484" type="line"/>
      <point x="223" y="484" type="line"/>
      <point x="127" y="614" type="line"/>
      <point x="154" y="614" type="line"/>
    </contour>
  </outline>
</glyph>
<glyph name="a" format="1">
  <advance width="394"/>
  <unicode hex="0061"/>
  <outline>
    <contour>
      <point x="324" y="280" type="curve" smooth="yes"/>
      <point x="281" y="0" type="line"/>
      <point x="260" y="0" type="line"/>
      <point x="268" y="46" type="line"/>
      <point x="230" y="18"/>
      <point x="174" y="-12"/>
      <point x="109" y="-12" type="curve" smooth="yes"/>
      <point x="47" y="-12"/>
      <point x="-6" y="27"/>
      <point x="-6" y="98" type="curve" smooth="yes"/>
      <point x="-6" y="181"/>
      <point x="59" y="249"/>
      <point x="221" y="249" type="curve" smooth="yes"/>
      <point x="300" y="249" type="line"/>
      <point x="305" y="280" type="line" smooth="yes"/>
      <point x="318" y="359"/>
      <point x="276" y="393"/>
      <point x="202" y="393" type="curve" smooth="yes"/>
      <point x="157" y="393"/>
      <point x="119" y="378"/>
      <point x="87" y="358" type="curve"/>
      <point x="80" y="376" type="line"/>
      <point x="116" y="397"/>
      <point x="151" y="413"/>
      <point x="207" y="413" type="curve" smooth="yes"/>
      <point x="301" y="413"/>
      <point x="336" y="359"/>
    </contour>
    <contour>
      <point x="297" y="229" type="line"/>
      <point x="221" y="229" type="line" smooth="yes"/>
      <point x="88" y="229"/>
      <point x="15" y="182"/>
      <point x="15" y="98" type="curve" smooth="yes"/>
      <point x="15" y="52"/>
      <point x="44" y="8"/>
      <point x="109" y="8" type="curve" smooth="yes"/>
      <point x="171" y="8"/>
      <point x="224" y="37"/>
      <point x="272" y="69" type="curve"/>
    </contour>
  </outline>
</glyph>
<glyph name="b" format="1">
  <advance width="462"/>
  <unicode hex="0062"/>
  <outline>
    <contour>
      <point x="188" y="-12" type="curve" smooth="yes"/>
      <point x="118" y="-12"/>
      <point x="66" y="32"/>
      <point x="37" y="85" type="curve"/>
      <point x="24" y="0" type="line"/>
      <point x="2" y="0" type="line"/>
      <point x="127" y="740" type="line"/>
      <point x="148" y="740" type="line"/>
      <point x="74" y="299" type="line"/>
      <point x="102" y="363"/>
      <point x="178" y="413"/>
      <point x="244" y="413" type="curve" smooth="yes"/>
      <point x="347" y="413"/>
      <point x="404" y="324"/>
      <point x="404" y="239" type="curve" smooth="yes"/>
      <point x="404" y="72"/>
      <point x="299" y="-12"/>
    </contour>
    <contour>
      <point x="243" y="392" type="curve" smooth="yes"/>
      <point x="159" y="392"/>
      <point x="76" y="321"/>
      <point x="55" y="197" type="curve" smooth="yes"/>
      <point x="41" y="116" type="line"/>
      <point x="67" y="56"/>
      <point x="115" y="9"/>
      <point x="195" y="9" type="curve" smooth="yes"/>
      <point x="306" y="9"/>
      <point x="384" y="109"/>
      <point x="384" y="230" type="curve" smooth="yes"/>
      <point x="384" y="331"/>
      <point x="324" y="392"/>
    </contour>
  </outline>
</glyph>
<glyph name="c" format="1">
  <advance width="453"/>
  <unicode hex="0063"/>
  <outline>
    <contour>
      <point x="353" y="63" type="line"/>
      <point x="311" y="17"/>
      <point x="253" y="-12"/>
      <point x="188" y="-12" type="curve" smooth="yes"/>
      <point x="69" y="-12"/>
      <point x="8" y="77"/>
      <point x="8" y="171" type="curve" smooth="yes"/>
      <point x="8" y="297"/>
      <point x="104" y="413"/>
      <point x="233" y="413" type="curve" smooth="yes"/>
      <point x="320" y="413"/>
      <point x="367" y="370"/>
      <point x="390" y="322" type="curve"/>
      <point x="372" y="312" type="line"/>
      <point x="348" y="363"/>
      <point x="301" y="393"/>
      <point x="233" y="393" type="curve" smooth="yes"/>
      <point x="116" y="393"/>
      <point x="29" y="285"/>
      <point x="29" y="171" type="curve" smooth="yes"/>
      <point x="29" y="88"/>
      <point x="84" y="8"/>
      <point x="188" y="8" type="curve" smooth="yes"/>
      <point x="246" y="8"/>
      <point x="300" y="34"/>
      <point x="337" y="77" type="curve"/>
    </contour>
  </outline>
</glyph>
<glyph name="d" format="1">
  <advance width="462"/>
  <unicode hex="0064"/>
  <outline>
    <contour>
      <point x="217" y="413" type="curve" smooth="yes"/>
      <point x="288" y="413"/>
      <point x="336" y="371"/>
      <point x="368" y="320" type="curve"/>
      <point x="440" y="740" type="line"/>
      <point x="461" y="740" type="line"/>
      <point x="333" y="0" type="line"/>
      <point x="312" y="0" type="line"/>
      <point x="329" y="94" type="line"/>
      <point x="302" y="30"/>
      <point x="227" y="-12"/>
      <point x="162" y="-12" type="curve" smooth="yes"/>
      <point x="58" y="-12"/>
      <point x="-1" y="69"/>
      <point x="-1" y="154" type="curve" smooth="yes"/>
      <point x="-1" y="321"/>
      <point x="106" y="413"/>
    </contour>
    <contour>
      <point x="163" y="9" type="curve" smooth="yes"/>
      <point x="246" y="9"/>
      <point x="328" y="70"/>
      <point x="348" y="196" type="curve" smooth="yes"/>
      <point x="363" y="289" type="line"/>
      <point x="337" y="347"/>
      <point x="291" y="392"/>
      <point x="211" y="392" type="curve" smooth="yes"/>
      <point x="98" y="392"/>
      <point x="20" y="281"/>
      <point x="20" y="163" type="curve" smooth="yes"/>
      <point x="20" y="62"/>
      <point x="81" y="9"/>
    </contour>
  </outline>
</glyph>
<glyph name="e" format="1">
  <advance width="469"/>
  <unicode hex="0065"/>
  <outline>
    <contour>
      <point x="395" y="231" type="curve" smooth="yes"/>
      <point x="395" y="224"/>
      <point x="395" y="216"/>
      <point x="395" y="214" type="curve"/>
      <point x="34" y="214" type="line"/>
      <point x="32" y="201"/>
      <point x="30" y="188"/>
      <point x="30" y="173" type="curve" smooth="yes"/>
      <point x="30" y="91"/>
      <point x="84" y="8"/>
      <point x="188" y="8" type="curve" smooth="yes"/>
      <point x="259" y="8"/>
      <point x="303" y="30"/>
      <point x="338" y="60" type="curve"/>
      <point x="352" y="45" type="line"/>
      <point x="317" y="14"/>
      <point x="267" y="-13"/>
      <point x="188" y="-13" type="curve" smooth="yes"/>
      <point x="69" y="-13"/>
      <point x="9" y="79"/>
      <point x="9" y="173" type="curve" smooth="yes"/>
      <point x="9" y="299"/>
      <point x="102" y="413"/>
      <point x="230" y="413" type="curve" smooth="yes"/>
      <point x="348" y="413"/>
      <point x="395" y="316"/>
    </contour>
    <contour>
      <point x="373" y="235" type="line"/>
      <point x="371" y="329"/>
      <point x="320" y="393"/>
      <point x="229" y="393" type="curve" smooth="yes"/>
      <point x="140" y="393"/>
      <point x="64" y="326"/>
      <point x="39" y="235" type="curve"/>
    </contour>
  </outline>
</glyph>
<glyph name="f" format="1">
  <advance width="175"/>
  <unicode hex="0066"/>
  <outline>
    <contour>
      <point x="104" y="401" type="line"/>
      <point x="172" y="401" type="line"/>
      <point x="167" y="381" type="line"/>
      <point x="100" y="381" type="line"/>
      <point x="8" y="-179" type="line"/>
      <point x="-13" y="-179" type="line"/>
      <point x="79" y="381" type="line"/>
      <point x="5" y="381" type="line"/>
      <point x="9" y="401" type="line"/>
      <point x="83" y="401" type="line"/>
      <point x="127" y="666" type="line" smooth="yes"/>
      <point x="136" y="723"/>
      <point x="169" y="740"/>
      <point x="209" y="740" type="curve" smooth="yes"/>
      <point x="230" y="740" type="line"/>
      <point x="227" y="719" type="line"/>
      <point x="205" y="719" type="line" smooth="yes"/>
      <point x="175" y="719"/>
      <point x="155" y="709"/>
      <point x="146" y="655" type="curve" smooth="yes"/>
    </contour>
  </outline>
</glyph>
<glyph name="g" format="1">
  <advance width="462"/>
  <unicode hex="0067"/>
  <outline>
    <contour>
      <point x="337" y="-8" type="line" smooth="yes"/>
      <point x="317" y="-132"/>
      <point x="240" y="-191"/>
      <point x="135" y="-191" type="curve" smooth="yes"/>
      <point x="61" y="-191"/>
      <point x="11" y="-164"/>
      <point x="-30" y="-105" type="curve"/>
      <point x="-13" y="-91" type="line"/>
      <point x="20" y="-143"/>
      <point x="64" y="-171"/>
      <point x="138" y="-171" type="curve" smooth="yes"/>
      <point x="212" y="-171"/>
      <point x="297" y="-136"/>
      <point x="317" y="-4" type="curve" smooth="yes"/>
      <point x="332" y="94" type="line"/>
      <point x="305" y="30"/>
      <point x="230" y="-12"/>
      <point x="165" y="-12" type="curve" smooth="yes"/>
      <point x="61" y="-12"/>
      <point x="2" y="69"/>
      <point x="2" y="154" type="curve" smooth="yes"/>
      <point x="2" y="321"/>
      <point x="108" y="413"/>
      <point x="219" y="413" type="curve" smooth="yes"/>
      <point x="290" y="413"/>
      <point x="339" y="371"/>
      <point x="370" y="320" type="curve"/>
      <point x="384" y="401" type="line"/>
      <point x="404" y="401" type="line"/>
    </contour>
    <contour>
      <point x="165" y="9" type="curve" smooth="yes"/>
      <point x="249" y="9"/>
      <point x="331" y="70"/>
      <point x="351" y="196" type="curve" smooth="yes"/>
      <point x="366" y="289" type="line"/>
      <point x="339" y="347"/>
      <point x="292" y="392"/>
      <point x="213" y="392" type="curve" smooth="yes"/>
      <point x="101" y="392"/>
      <point x="23" y="284"/>
      <point x="23" y="163" type="curve" smooth="yes"/>
      <point x="23" y="62"/>
      <point x="84" y="9"/>
    </contour>
  </outline>
</glyph>
<glyph name="h" format="1">
  <advance width="427"/>
  <unicode hex="0068"/>
  <outline>
    <contour>
      <point x="307" y="0" type="line"/>
      <point x="287" y="0" type="line"/>
      <point x="329" y="254" type="line" smooth="yes"/>
      <point x="342" y="333"/>
      <point x="308" y="394"/>
      <point x="215" y="394" type="curve" smooth="yes"/>
      <point x="141" y="394"/>
      <point x="77" y="325"/>
      <point x="68" y="272" type="curve" smooth="yes"/>
      <point x="23" y="0" type="line"/>
      <point x="2" y="0" type="line"/>
      <point x="125" y="740" type="line"/>
      <point x="146" y="740" type="line"/>
      <point x="77" y="331" type="line"/>
      <point x="108" y="389"/>
      <point x="169" y="413"/>
      <point x="218" y="413" type="curve" smooth="yes"/>
      <point x="326" y="413"/>
      <point x="364" y="335"/>
      <point x="351" y="259" type="curve" smooth="yes"/>
    </contour>
  </outline>
</glyph>
<glyph name="i" format="1">
  <advance width="156"/>
  <unicode hex="0069"/>
  <outline>
    <contour>
      <point x="126" y="593" type="line"/>
      <point x="112" y="513" type="line"/>
      <point x="91" y="513" type="line"/>
      <point x="105" y="593" type="line"/>
    </contour>
    <contour>
      <point x="94" y="401" type="line"/>
      <point x="27" y="0" type="line"/>
      <point x="7" y="0" type="line"/>
      <point x="73" y="401" type="line"/>
    </contour>
  </outline>
</glyph>
<glyph name="j" format="1">
  <advance width="149"/>
  <unicode hex="006A"/>
  <outline>
    <contour>
      <point x="126" y="593" type="line"/>
      <point x="112" y="513" type="line"/>
      <point x="91" y="513" type="line"/>
      <point x="105" y="593" type="line"/>
    </contour>
    <contour>
      <point x="73" y="401" type="line"/>
      <point x="94" y="401" type="line"/>
      <point x="5" y="-130" type="line" smooth="yes"/>
      <point x="-2" y="-171"/>
      <point x="-32" y="-188"/>
      <point x="-70" y="-188" type="curve" smooth="yes"/>
      <point x="-85" y="-188"/>
      <point x="-83" y="-188"/>
      <point x="-86" y="-188" type="curve"/>
      <point x="-80" y="-167" type="line"/>
      <point x="-72" y="-167"/>
      <point x="-70" y="-167"/>
      <point x="-63" y="-167" type="curve" smooth="yes"/>
      <point x="-44" y="-167"/>
      <point x="-21" y="-161"/>
      <point x="-14" y="-122" type="curve" smooth="yes"/>
    </contour>
  </outline>
</glyph>
<glyph name="k" format="1">
  <advance width="383"/>
  <unicode hex="006B"/>
  <outline>
    <contour>
      <point x="351" y="401" type="line"/>
      <point x="133" y="218" type="line"/>
      <point x="303" y="0" type="line"/>
      <point x="277" y="0" type="line"/>
      <point x="116" y="205" type="line"/>
      <point x="54" y="155" type="line"/>
      <point x="27" y="0" type="line"/>
      <point x="7" y="0" type="line"/>
      <point x="130" y="740" type="line"/>
      <point x="151" y="740" type="line"/>
      <point x="58" y="182" type="line"/>
      <point x="322" y="401" type="line"/>
    </contour>
  </outline>
</glyph>
<glyph name="l" format="1">
  <advance width="156"/>
  <unicode hex="006C"/>
  <outline>
    <contour>
      <point x="151" y="740" type="line"/>
      <point x="27" y="0" type="line"/>
      <point x="7" y="0" type="line"/>
      <point x="130" y="740" type="line"/>
    </contour>
  </outline>
</glyph>
<glyph name="m" format="1">
  <advance width="685"/>
  <unicode hex="006D"/>
  <outline>
    <contour>
      <point x="338" y="313" type="curve"/>
      <point x="351" y="346"/>
      <point x="403" y="413"/>
      <point x="483" y="413" type="curve" smooth="yes"/>
      <point x="591" y="413"/>
      <point x="622" y="335"/>
      <point x="609" y="259" type="curve" smooth="yes"/>
      <point x="566" y="0" type="line"/>
      <point x="545" y="0" type="line"/>
      <point x="588" y="254" type="line" smooth="yes"/>
      <point x="601" y="333"/>
      <point x="573" y="394"/>
      <point x="480" y="394" type="curve" smooth="yes"/>
      <point x="406" y="394"/>
      <point x="349" y="325"/>
      <point x="340" y="272" type="curve" smooth="yes"/>
      <point x="294" y="0" type="line"/>
      <point x="274" y="0" type="line"/>
      <point x="316" y="254" type="line" smooth="yes"/>
      <point x="329" y="333"/>
      <point x="302" y="394"/>
      <point x="209" y="394" type="curve" smooth="yes"/>
      <point x="134" y="394"/>
      <point x="78" y="325"/>
      <point x="69" y="272" type="curve" smooth="yes"/>
      <point x="23" y="0" type="line"/>
      <point x="2" y="0" type="line"/>
      <point x="70" y="401" type="line"/>
      <point x="90" y="401" type="line"/>
      <point x="77" y="331" type="line"/>
      <point x="108" y="389"/>
      <point x="163" y="413"/>
      <point x="212" y="413" type="curve" smooth="yes"/>
      <point x="294" y="413"/>
      <point x="331" y="368"/>
    </contour>
  </outline>
</glyph>
<glyph name="n" format="1">
  <advance width="427"/>
  <unicode hex="006E"/>
  <outline>
    <contour>
      <point x="307" y="0" type="line"/>
      <point x="287" y="0" type="line"/>
      <point x="330" y="255" type="line" smooth="yes"/>
      <point x="343" y="334"/>
      <point x="309" y="395"/>
      <point x="216" y="395" type="curve" smooth="yes"/>
      <point x="142" y="395"/>
      <point x="79" y="326"/>
      <point x="70" y="273" type="curve" smooth="yes"/>
      <point x="23" y="0" type="line"/>
      <point x="2" y="0" type="line"/>
      <point x="71" y="401" type="line"/>
      <point x="91" y="401" type="line"/>
      <point x="78" y="332" type="line"/>
      <point x="109" y="390"/>
      <point x="170" y="414"/>
      <point x="219" y="414" type="curve" smooth="yes"/>
      <point x="327" y="414"/>
      <point x="365" y="336"/>
      <point x="352" y="260" type="curve" smooth="yes"/>
    </contour>
  </outline>
</glyph>
<glyph name="o" format="1">
  <advance width="480"/>
  <unicode hex="006F"/>
  <outline>
    <contour>
      <point x="188" y="-12" type="curve" smooth="yes"/>
      <point x="69" y="-12"/>
      <point x="8" y="81"/>
      <point x="8" y="175" type="curve" smooth="yes"/>
      <point x="8" y="301"/>
      <point x="104" y="413"/>
      <point x="233" y="413" type="curve" smooth="yes"/>
      <point x="354" y="413"/>
      <point x="411" y="316"/>
      <point x="411" y="225" type="curve" smooth="yes"/>
      <point x="411" y="95"/>
      <point x="310" y="-12"/>
    </contour>
    <contour>
      <point x="233" y="393" type="curve" smooth="yes"/>
      <point x="116" y="393"/>
      <point x="29" y="289"/>
      <point x="29" y="175" type="curve" smooth="yes"/>
      <point x="29" y="93"/>
      <point x="83" y="8"/>
      <point x="188" y="8" type="curve" smooth="yes"/>
      <point x="299" y="8"/>
      <point x="390" y="107"/>
      <point x="390" y="225" type="curve" smooth="yes"/>
      <point x="390" y="306"/>
      <point x="339" y="393"/>
    </contour>
  </outline>
</glyph>
<glyph name="p" format="1">
  <advance width="462"/>
  <unicode hex="0070"/>
  <outline>
    <contour>
      <point x="188" y="-12" type="curve" smooth="yes"/>
      <point x="118" y="-12"/>
      <point x="67" y="24"/>
      <point x="36" y="73" type="curve"/>
      <point x="-8" y="-179" type="line"/>
      <point x="-28" y="-179" type="line"/>
      <point x="70" y="401" type="line"/>
      <point x="90" y="401" type="line"/>
      <point x="74" y="299" type="line"/>
      <point x="102" y="363"/>
      <point x="174" y="413"/>
      <point x="243" y="413" type="curve" smooth="yes"/>
      <point x="346" y="413"/>
      <point x="404" y="324"/>
      <point x="404" y="239" type="curve" smooth="yes"/>
      <point x="404" y="72"/>
      <point x="299" y="-12"/>
    </contour>
    <contour>
      <point x="242" y="392" type="curve" smooth="yes"/>
      <point x="158" y="392"/>
      <point x="75" y="322"/>
      <point x="55" y="197" type="curve" smooth="yes"/>
      <point x="40" y="104" type="line"/>
      <point x="67" y="46"/>
      <point x="115" y="9"/>
      <point x="195" y="9" type="curve" smooth="yes"/>
      <point x="306" y="9"/>
      <point x="384" y="109"/>
      <point x="384" y="230" type="curve" smooth="yes"/>
      <point x="384" y="331"/>
      <point x="323" y="392"/>
    </contour>
  </outline>
</glyph>
<glyph name="q" format="1">
  <advance width="462"/>
  <unicode hex="0071"/>
  <outline>
    <contour>
      <point x="219" y="413" type="curve" smooth="yes"/>
      <point x="290" y="413"/>
      <point x="342" y="361"/>
      <point x="369" y="308" type="curve"/>
      <point x="385" y="401" type="line"/>
      <point x="406" y="401" type="line"/>
      <point x="307" y="-179" type="line"/>
      <point x="287" y="-179" type="line"/>
      <point x="332" y="94" type="line"/>
      <point x="304" y="30"/>
      <point x="230" y="-12"/>
      <point x="165" y="-12" type="curve" smooth="yes"/>
      <point x="61" y="-12"/>
      <point x="2" y="69"/>
      <point x="2" y="154" type="curve" smooth="yes"/>
      <point x="2" y="321"/>
      <point x="108" y="413"/>
    </contour>
    <contour>
      <point x="165" y="9" type="curve" smooth="yes"/>
      <point x="249" y="9"/>
      <point x="330" y="72"/>
      <point x="351" y="196" type="curve" smooth="yes"/>
      <point x="365" y="277" type="line"/>
      <point x="339" y="337"/>
      <point x="292" y="392"/>
      <point x="213" y="392" type="curve" smooth="yes"/>
      <point x="101" y="392"/>
      <point x="23" y="284"/>
      <point x="23" y="163" type="curve" smooth="yes"/>
      <point x="23" y="62"/>
      <point x="84" y="9"/>
    </contour>
  </outline>
</glyph>
<glyph name="r" format="1">
  <advance width="274"/>
  <unicode hex="0072"/>
  <outline>
    <contour>
      <point x="267" y="377" type="curve"/>
      <point x="253" y="362" type="line"/>
      <point x="228" y="389"/>
      <point x="207" y="393"/>
      <point x="186" y="393" type="curve" smooth="yes"/>
      <point x="129" y="393"/>
      <point x="75" y="335"/>
      <point x="65" y="273" type="curve" smooth="yes"/>
      <point x="21" y="0" type="line"/>
      <point x="0" y="0" type="line"/>
      <point x="67" y="401" type="line"/>
      <point x="87" y="401" type="line"/>
      <point x="75" y="339" type="line"/>
      <point x="93" y="375"/>
      <point x="135" y="413"/>
      <point x="186" y="413" type="curve" smooth="yes"/>
      <point x="214" y="413"/>
      <point x="241" y="406"/>
    </contour>
  </outline>
</glyph>
<glyph name="s" format="1">
  <advance width="345"/>
  <unicode hex="0073"/>
  <outline>
    <contour>
      <point x="-1" y="54" type="line"/>
      <point x="37" y="24"/>
      <point x="87" y="8"/>
      <point x="131" y="8" type="curve" smooth="yes"/>
      <point x="190" y="8"/>
      <point x="239" y="35"/>
      <point x="239" y="95" type="curve" smooth="yes"/>
      <point x="239" y="154"/>
      <point x="184" y="173"/>
      <point x="134" y="196" type="curve" smooth="yes"/>
      <point x="81" y="221"/>
      <point x="33" y="248"/>
      <point x="33" y="310" type="curve" smooth="yes"/>
      <point x="33" y="381"/>
      <point x="95" y="415"/>
      <point x="164" y="415" type="curve" smooth="yes"/>
      <point x="211" y="415"/>
      <point x="259" y="396"/>
      <point x="284" y="362" type="curve"/>
      <point x="268" y="350" type="line"/>
      <point x="247" y="380"/>
      <point x="205" y="395"/>
      <point x="164" y="395" type="curve" smooth="yes"/>
      <point x="107" y="395"/>
      <point x="54" y="369"/>
      <point x="54" y="310" type="curve" smooth="yes"/>
      <point x="54" y="256"/>
      <point x="97" y="235"/>
      <point x="142" y="214" type="curve" smooth="yes"/>
      <point x="200" y="187"/>
      <point x="260" y="162"/>
      <point x="260" y="95" type="curve" smooth="yes"/>
      <point x="260" y="23"/>
      <point x="202" y="-12"/>
      <point x="131" y="-12" type="curve" smooth="yes"/>
      <point x="83" y="-12"/>
      <point x="29" y="6"/>
      <point x="-13" y="38" type="curve"/>
    </contour>
  </outline>
</glyph>
<glyph name="t" format="1">
  <advance width="205"/>
  <unicode hex="0074"/>
  <outline>
    <contour>
      <point x="75" y="381" type="line"/>
      <point x="12" y="381" type="line"/>
      <point x="16" y="401" type="line"/>
      <point x="79" y="401" type="line"/>
      <point x="105" y="563" type="line"/>
      <point x="130" y="584" type="line"/>
      <point x="100" y="401" type="line"/>
      <point x="172" y="401" type="line"/>
      <point x="167" y="381" type="line"/>
      <point x="96" y="381" type="line"/>
      <point x="47" y="86" type="line" smooth="yes"/>
      <point x="41" y="47"/>
      <point x="45" y="21"/>
      <point x="86" y="21" type="curve" smooth="yes"/>
      <point x="111" y="21" type="line"/>
      <point x="99" y="0" type="line"/>
      <point x="86" y="0" type="line" smooth="yes"/>
      <point x="38" y="0"/>
      <point x="16" y="32"/>
      <point x="25" y="86" type="curve" smooth="yes"/>
    </contour>
  </outline>
</glyph>
<glyph name="u" format="1">
  <advance width="427"/>
  <unicode hex="0075"/>
  <outline>
    <contour>
      <point x="64" y="401" type="line"/>
      <point x="85" y="401" type="line"/>
      <point x="43" y="147" type="line" smooth="yes"/>
      <point x="30" y="68"/>
      <point x="64" y="7"/>
      <point x="157" y="7" type="curve" smooth="yes"/>
      <point x="231" y="7"/>
      <point x="294" y="73"/>
      <point x="303" y="126" type="curve" smooth="yes"/>
      <point x="349" y="401" type="line"/>
      <point x="369" y="401" type="line"/>
      <point x="302" y="0" type="line"/>
      <point x="281" y="0" type="line"/>
      <point x="294" y="67" type="line"/>
      <point x="263" y="9"/>
      <point x="203" y="-12"/>
      <point x="154" y="-12" type="curve" smooth="yes"/>
      <point x="46" y="-12"/>
      <point x="10" y="66"/>
      <point x="22" y="142" type="curve" smooth="yes"/>
    </contour>
  </outline>
</glyph>
<glyph name="v" format="1">
  <advance width="382"/>
  <unicode hex="0076"/>
  <outline>
    <contour>
      <point x="366" y="401" type="line"/>
      <point x="128" y="-22" type="line"/>
      <point x="26" y="401" type="line"/>
      <point x="48" y="401" type="line"/>
      <point x="135" y="31" type="line"/>
      <point x="342" y="401" type="line"/>
    </contour>
  </outline>
</glyph>
<glyph name="w" format="1">
  <advance width="593"/>
  <unicode hex="0077"/>
  <outline>
    <contour>
      <point x="292" y="342" type="line"/>
      <point x="116" y="-22" type="line"/>
      <point x="26" y="401" type="line"/>
      <point x="48" y="401" type="line"/>
      <point x="123" y="37" type="line"/>
      <point x="134" y="61"/>
      <point x="302" y="405"/>
      <point x="302" y="405" type="curve"/>
      <point x="302" y="405"/>
      <point x="365" y="37"/>
      <point x="365" y="36" type="curve"/>
      <point x="558" y="401" type="line"/>
      <point x="581" y="401" type="line"/>
      <point x="355" y="-22" type="line"/>
    </contour>
  </outline>
</glyph>
<glyph name="x" format="1">
  <advance width="378"/>
  <unicode hex="0078"/>
  <outline>
    <contour>
      <point x="170" y="215" type="line"/>
      <point x="287" y="0" type="line"/>
      <point x="262" y="0" type="line"/>
      <point x="156" y="198" type="line"/>
      <point x="-15" y="0" type="line"/>
      <point x="-40" y="0" type="line"/>
      <point x="146" y="216" type="line"/>
      <point x="47" y="401" type="line"/>
      <point x="70" y="401" type="line"/>
      <point x="161" y="233" type="line"/>
      <point x="307" y="401" type="line"/>
      <point x="332" y="401" type="line"/>
    </contour>
  </outline>
</glyph>
<glyph name="y" format="1">
  <advance width="373"/>
  <unicode hex="0079"/>
  <outline>
    <contour>
      <point x="356" y="401" type="line"/>
      <point x="69" y="-121" type="line" smooth="yes"/>
      <point x="44" y="-167"/>
      <point x="11" y="-189"/>
      <point x="-23" y="-189" type="curve" smooth="yes"/>
      <point x="-47" y="-189"/>
      <point x="-58" y="-184"/>
      <point x="-70" y="-176" type="curve"/>
      <point x="-65" y="-154" type="line"/>
      <point x="-52" y="-165"/>
      <point x="-39" y="-169"/>
      <point x="-16" y="-169" type="curve" smooth="yes"/>
      <point x="15" y="-169"/>
      <point x="41" y="-132"/>
      <point x="58" y="-101" type="curve" smooth="yes"/>
      <point x="118" y="9" type="line"/>
      <point x="23" y="401" type="line"/>
      <point x="46" y="401" type="line"/>
      <point x="132" y="32" type="line"/>
      <point x="334" y="401" type="line"/>
    </contour>
  </outline>
</glyph>
<glyph name="z" format="1">
  <advance width="397"/>
  <unicode hex="007A"/>
  <outline>
    <contour>
      <point x="369" y="401" type="line"/>
      <point x="12" y="20" type="line"/>
      <point x="290" y="20" type="line"/>
      <point x="287" y="0" type="line"/>
      <point x="-35" y="0" type="line"/>
      <point x="324" y="381" type="line"/>
      <point x="62" y="381" type="line"/>
      <point x="66" y="401" type="line"/>
    </contour>
  </outline>
</glyph>
<glyph name="braceleft" format="1">
  <advance width="264"/>
  <unicode hex="007B"/>
  <outline>
    <contour>
      <point x="328" y="749" type="curve"/>
      <point x="324" y="725" type="line"/>
      <point x="225" y="678"/>
      <point x="206" y="640"/>
      <point x="180" y="494" type="curve" smooth="yes"/>
      <point x="157" y="363"/>
      <point x="145" y="306"/>
      <point x="73" y="285" type="curve"/>
      <point x="112" y="273"/>
      <point x="123" y="244"/>
      <point x="123" y="197" type="curve" smooth="yes"/>
      <point x="123" y="137"/>
      <point x="94" y="22"/>
      <point x="94" y="-42" type="curve" smooth="yes"/>
      <point x="94" y="-104"/>
      <point x="115" y="-123"/>
      <point x="169" y="-154" type="curve"/>
      <point x="165" y="-178" type="line"/>
      <point x="99" y="-144"/>
      <point x="73" y="-113"/>
      <point x="73" y="-43" type="curve" smooth="yes"/>
      <point x="73" y="36"/>
      <point x="103" y="133"/>
      <point x="103" y="199" type="curve" smooth="yes"/>
      <point x="103" y="249"/>
      <point x="85" y="276"/>
      <point x="29" y="276" type="curve"/>
      <point x="32" y="296" type="line"/>
      <point x="121" y="296"/>
      <point x="137" y="361"/>
      <point x="158" y="482" type="curve" smooth="yes"/>
      <point x="188" y="655"/>
      <point x="213" y="699"/>
    </contour>
  </outline>
</glyph>
<glyph name="bar" format="1">
  <advance width="195"/>
  <unicode hex="007C"/>
  <outline>
    <contour>
      <point x="172" y="730" type="line"/>
      <point x="10" y="-179" type="line"/>
      <point x="-12" y="-179" type="line"/>
      <point x="150" y="730" type="line"/>
    </contour>
  </outline>
</glyph>
<glyph name="braceright" format="1">
  <advance width="264"/>
  <unicode hex="007D"/>
  <outline>
    <contour>
      <point x="214" y="295" type="curve"/>
      <point x="211" y="275" type="line"/>
      <point x="122" y="275"/>
      <point x="106" y="210"/>
      <point x="85" y="89" type="curve" smooth="yes"/>
      <point x="55" y="-84"/>
      <point x="30" y="-128"/>
      <point x="-85" y="-178" type="curve"/>
      <point x="-81" y="-154" type="line"/>
      <point x="18" y="-107"/>
      <point x="37" y="-69"/>
      <point x="63" y="77" type="curve" smooth="yes"/>
      <point x="86" y="208"/>
      <point x="98" y="265"/>
      <point x="170" y="286" type="curve"/>
      <point x="131" y="298"/>
      <point x="120" y="327"/>
      <point x="120" y="374" type="curve" smooth="yes"/>
      <point x="120" y="434"/>
      <point x="149" y="549"/>
      <point x="149" y="613" type="curve" smooth="yes"/>
      <point x="149" y="675"/>
      <point x="128" y="694"/>
      <point x="74" y="725" type="curve"/>
      <point x="78" y="749" type="line"/>
      <point x="144" y="715"/>
      <point x="170" y="684"/>
      <point x="170" y="614" type="curve" smooth="yes"/>
      <point x="170" y="535"/>
      <point x="140" y="438"/>
      <point x="140" y="372" type="curve" smooth="yes"/>
      <point x="140" y="322"/>
      <point x="158" y="295"/>
    </contour>
  </outline>
</glyph>
<glyph name="exclamdown" format="1">
  <advance width="181"/>
  <unicode hex="00A1"/>
  <outline>
    <contour>
      <point x="130" y="659" type="line"/>
      <point x="143" y="730" type="line"/>
      <point x="165" y="730" type="line"/>
      <point x="152" y="659" type="line"/>
    </contour>
    <contour>
      <point x="14" y="0" type="line"/>
      <point x="101" y="498" type="line"/>
      <point x="127" y="615" type="line"/>
      <point x="139" y="615" type="line"/>
      <point x="123" y="498" type="line"/>
      <point x="36" y="0" type="line"/>
    </contour>
  </outline>
</glyph>
<glyph name="cent" format="1">
  <advance width="464"/>
  <unicode hex="00A2"/>
  <outline>
    <contour>
      <point x="195" y="-12" type="curve"/>
      <point x="182" y="-89" type="line"/>
      <point x="160" y="-89" type="line"/>
      <point x="174" y="-11" type="line"/>
      <point x="65" y="1"/>
      <point x="9" y="88"/>
      <point x="9" y="175" type="curve" smooth="yes"/>
      <point x="9" y="301"/>
      <point x="111" y="413"/>
      <point x="248" y="413" type="curve" smooth="yes"/>
      <point x="249" y="413"/>
      <point x="249" y="413"/>
      <point x="250" y="413" type="curve"/>
      <point x="262" y="485" type="line"/>
      <point x="284" y="485" type="line"/>
      <point x="272" y="412" type="line"/>
      <point x="342" y="405"/>
      <point x="390" y="369"/>
      <point x="415" y="322" type="curve"/>
      <point x="396" y="312" type="line"/>
      <point x="375" y="354"/>
      <point x="330" y="385"/>
      <point x="268" y="391" type="curve"/>
      <point x="199" y="9" type="line"/>
      <point x="200" y="9" type="line" smooth="yes"/>
      <point x="262" y="9"/>
      <point x="319" y="34"/>
      <point x="358" y="77" type="curve"/>
      <point x="375" y="63" type="line"/>
      <point x="331" y="17"/>
      <point x="269" y="-12"/>
      <point x="200" y="-12" type="curve" smooth="yes"/>
      <point x="199" y="-12"/>
      <point x="197" y="-12"/>
    </contour>
    <contour>
      <point x="177" y="10" type="curve"/>
      <point x="178" y="10"/>
      <point x="246" y="392"/>
      <point x="246" y="392" type="curve"/>
      <point x="122" y="392"/>
      <point x="31" y="289"/>
      <point x="31" y="175" type="curve" smooth="yes"/>
      <point x="31" y="99"/>
      <point x="80" y="20"/>
    </contour>
  </outline>
</glyph>
<glyph name="sterling" format="1">
  <advance width="529"/>
  <unicode hex="00A3"/>
  <outline>
    <contour>
      <point x="504" y="568" type="curve"/>
      <point x="482" y="568" type="line"/>
      <point x="482" y="568"/>
      <point x="483" y="572"/>
      <point x="483" y="580" type="curve" smooth="yes"/>
      <point x="483" y="661"/>
      <point x="432" y="722"/>
      <point x="336" y="722" type="curve" smooth="yes"/>
      <point x="217" y="722"/>
      <point x="146" y="646"/>
      <point x="146" y="523" type="curve" smooth="yes"/>
      <point x="146" y="463"/>
      <point x="173" y="415"/>
      <point x="203" y="361" type="curve"/>
      <point x="404" y="361" type="line"/>
      <point x="401" y="341" type="line"/>
      <point x="215" y="341" type="line"/>
      <point x="234" y="307"/>
      <point x="247" y="274"/>
      <point x="254" y="245" type="curve"/>
      <point x="386" y="245" type="line"/>
      <point x="382" y="225" type="line"/>
      <point x="257" y="225" type="line"/>
      <point x="258" y="220"/>
      <point x="258" y="215"/>
      <point x="258" y="210" type="curve" smooth="yes"/>
      <point x="258" y="162"/>
      <point x="244" y="118"/>
      <point x="224" y="83" type="curve"/>
      <point x="268" y="41"/>
      <point x="297" y="8"/>
      <point x="343" y="8" type="curve" smooth="yes"/>
      <point x="406" y="8"/>
      <point x="432" y="63"/>
      <point x="440" y="137" type="curve"/>
      <point x="462" y="137" type="line"/>
      <point x="451" y="43"/>
      <point x="414" y="-12"/>
      <point x="339" y="-12" type="curve" smooth="yes"/>
      <point x="285" y="-12"/>
      <point x="252" y="25"/>
      <point x="212" y="65" type="curve"/>
      <point x="178" y="17"/>
      <point x="131" y="-12"/>
      <point x="88" y="-12" type="curve" smooth="yes"/>
      <point x="50" y="-12"/>
      <point x="7" y="7"/>
      <point x="7" y="58" type="curve" smooth="yes"/>
      <point x="7" y="104"/>
      <point x="48" y="141"/>
      <point x="109" y="141" type="curve" smooth="yes"/>
      <point x="148" y="141"/>
      <point x="180" y="122"/>
      <point x="208" y="97" type="curve"/>
      <point x="225" y="129"/>
      <point x="236" y="166"/>
      <point x="236" y="206" type="curve" smooth="yes"/>
      <point x="236" y="212"/>
      <point x="236" y="219"/>
      <point x="235" y="225" type="curve"/>
      <point x="74" y="225" type="line"/>
      <point x="78" y="245" type="line"/>
      <point x="231" y="245" type="line"/>
      <point x="224" y="276"/>
      <point x="209" y="307"/>
      <point x="190" y="341" type="curve"/>
      <point x="92" y="341" type="line"/>
      <point x="95" y="361" type="line"/>
      <point x="178" y="361" type="line"/>
      <point x="145" y="418"/>
      <point x="123" y="464"/>
      <point x="123" y="523" type="curve" smooth="yes"/>
      <point x="123" y="658"/>
      <point x="202" y="742"/>
      <point x="336" y="742" type="curve" smooth="yes"/>
      <point x="441" y="742"/>
      <point x="505" y="676"/>
      <point x="505" y="586" type="curve" smooth="yes"/>
      <point x="505" y="577"/>
      <point x="504" y="568"/>
    </contour>
    <contour>
      <point x="197" y="79" type="curve"/>
      <point x="171" y="102"/>
      <point x="142" y="121"/>
      <point x="109" y="121" type="curve" smooth="yes"/>
      <point x="61" y="121"/>
      <point x="29" y="96"/>
      <point x="29" y="59" type="curve" smooth="yes"/>
      <point x="29" y="28"/>
      <point x="50" y="8"/>
      <point x="90" y="8" type="curve" smooth="yes"/>
      <point x="127" y="8"/>
      <point x="168" y="36"/>
    </contour>
  </outline>
</glyph>
<glyph name="yen" format="1">
  <advance width="615"/>
  <unicode hex="00A5"/>
  <outline>
    <contour>
      <point x="243" y="0" type="line"/>
      <point x="221" y="0" type="line"/>
      <point x="243" y="124" type="line"/>
      <point x="35" y="124" type="line"/>
      <point x="38" y="144" type="line"/>
      <point x="246" y="144" type="line"/>
      <point x="263" y="240" type="line"/>
      <point x="55" y="240" type="line"/>
      <point x="59" y="260" type="line"/>
      <point x="267" y="260" type="line"/>
      <point x="284" y="357" type="line"/>
      <point x="82" y="730" type="line"/>
      <point x="107" y="730" type="line"/>
      <point x="295" y="384" type="line"/>
      <point x="298" y="378" type="line"/>
      <point x="304" y="384" type="line"/>
      <point x="613" y="730" type="line"/>
      <point x="637" y="730" type="line"/>
      <point x="306" y="360" type="line"/>
      <point x="289" y="260" type="line"/>
      <point x="487" y="260" type="line"/>
      <point x="483" y="240" type="line"/>
      <point x="285" y="240" type="line"/>
      <point x="268" y="144" type="line"/>
      <point x="466" y="144" type="line"/>
      <point x="463" y="124" type="line"/>
      <point x="265" y="124" type="line"/>
    </contour>
  </outline>
</glyph>
<glyph name="brokenbar" format="1">
  <advance width="186"/>
  <unicode hex="00A6"/>
  <outline>
    <contour>
      <point x="105" y="351" type="line"/>
      <point x="83" y="351" type="line"/>
      <point x="150" y="730" type="line"/>
      <point x="172" y="730" type="line"/>
    </contour>
    <contour>
      <point x="12" y="-179" type="line"/>
      <point x="-10" y="-179" type="line"/>
      <point x="57" y="200" type="line"/>
      <point x="79" y="200" type="line"/>
    </contour>
  </outline>
</glyph>
<glyph name="section" format="1">
  <advance width="616"/>
  <unicode hex="00A7"/>
  <outline>
    <contour>
      <point x="566" y="664" type="curve"/>
      <point x="551" y="649" type="line"/>
      <point x="518" y="686"/>
      <point x="460" y="722"/>
      <point x="368" y="722" type="curve" smooth="yes"/>
      <point x="259" y="722"/>
      <point x="174" y="662"/>
      <point x="174" y="582" type="curve" smooth="yes"/>
      <point x="174" y="524"/>
      <point x="226" y="493"/>
      <point x="292" y="467" type="curve" smooth="yes"/>
      <point x="329" y="452"/>
      <point x="392" y="434"/>
      <point x="436" y="416" type="curve" smooth="yes"/>
      <point x="506" y="387"/>
      <point x="561" y="346"/>
      <point x="561" y="269" type="curve" smooth="yes"/>
      <point x="561" y="173"/>
      <point x="483" y="105"/>
      <point x="394" y="60" type="curve"/>
      <point x="421" y="39"/>
      <point x="439" y="12"/>
      <point x="439" y="-24" type="curve" smooth="yes"/>
      <point x="439" y="-124"/>
      <point x="345" y="-190"/>
      <point x="219" y="-190" type="curve" smooth="yes"/>
      <point x="122" y="-190"/>
      <point x="59" y="-151"/>
      <point x="25" y="-112" type="curve"/>
      <point x="40" y="-97" type="line"/>
      <point x="73" y="-134"/>
      <point x="131" y="-170"/>
      <point x="223" y="-170" type="curve" smooth="yes"/>
      <point x="332" y="-170"/>
      <point x="417" y="-110"/>
      <point x="417" y="-30" type="curve" smooth="yes"/>
      <point x="417" y="24"/>
      <point x="373" y="55"/>
      <point x="312" y="80" type="curve" smooth="yes"/>
      <point x="259" y="102"/>
      <point x="197" y="118"/>
      <point x="145" y="140" type="curve" smooth="yes"/>
      <point x="79" y="169"/>
      <point x="30" y="209"/>
      <point x="30" y="283" type="curve" smooth="yes"/>
      <point x="30" y="379"/>
      <point x="106" y="446"/>
      <point x="198" y="491" type="curve"/>
      <point x="171" y="512"/>
      <point x="152" y="540"/>
      <point x="152" y="576" type="curve" smooth="yes"/>
      <point x="152" y="676"/>
      <point x="246" y="742"/>
      <point x="372" y="742" type="curve" smooth="yes"/>
      <point x="469" y="742"/>
      <point x="532" y="703"/>
    </contour>
    <contour>
      <point x="539" y="264" type="curve" smooth="yes"/>
      <point x="539" y="335"/>
      <point x="489" y="371"/>
      <point x="427" y="397" type="curve" smooth="yes"/>
      <point x="383" y="416"/>
      <point x="331" y="429"/>
      <point x="281" y="448" type="curve" smooth="yes"/>
      <point x="258" y="456"/>
      <point x="235" y="466"/>
      <point x="216" y="478" type="curve"/>
      <point x="127" y="437"/>
      <point x="52" y="376"/>
      <point x="52" y="284" type="curve" smooth="yes"/>
      <point x="52" y="220"/>
      <point x="97" y="185"/>
      <point x="155" y="159" type="curve" smooth="yes"/>
      <point x="224" y="128"/>
      <point x="312" y="113"/>
      <point x="375" y="73" type="curve"/>
      <point x="464" y="115"/>
      <point x="539" y="177"/>
    </contour>
  </outline>
</glyph>
<glyph name="dieresis" format="1">
  <advance width="410"/>
  <unicode hex="00A8"/>
  <outline>
    <contour>
      <point x="333" y="568" type="line"/>
      <point x="318" y="484" type="line"/>
      <point x="296" y="484" type="line"/>
      <point x="311" y="568" type="line"/>
    </contour>
    <contour>
      <point x="163" y="568" type="line"/>
      <point x="148" y="484" type="line"/>
      <point x="126" y="484" type="line"/>
      <point x="141" y="568" type="line"/>
    </contour>
  </outline>
</glyph>
<glyph name="ordfeminine" format="1">
  <advance width="403"/>
  <unicode hex="00AA"/>
  <outline>
    <contour>
      <point x="374" y="641" type="curve" smooth="yes"/>
      <point x="335" y="400" type="line"/>
      <point x="313" y="400" type="line"/>
      <point x="320" y="440" type="line"/>
      <point x="286" y="416"/>
      <point x="235" y="390"/>
      <point x="176" y="390" type="curve" smooth="yes"/>
      <point x="120" y="390"/>
      <point x="72" y="423"/>
      <point x="72" y="484" type="curve" smooth="yes"/>
      <point x="72" y="553"/>
      <point x="130" y="606"/>
      <point x="276" y="606" type="curve" smooth="yes"/>
      <point x="349" y="606" type="line"/>
      <point x="349" y="605"/>
      <point x="353" y="633"/>
      <point x="353" y="633" type="curve" smooth="yes"/>
      <point x="362" y="694"/>
      <point x="326" y="723"/>
      <point x="259" y="723" type="curve" smooth="yes"/>
      <point x="218" y="723"/>
      <point x="180" y="710"/>
      <point x="156" y="694" type="curve"/>
      <point x="148" y="712" type="line"/>
      <point x="172" y="728"/>
      <point x="216" y="742"/>
      <point x="266" y="742" type="curve" smooth="yes"/>
      <point x="354" y="742"/>
      <point x="382" y="689"/>
    </contour>
    <contour>
      <point x="332" y="336" type="line"/>
      <point x="329" y="316" type="line"/>
      <point x="63" y="316" type="line"/>
      <point x="66" y="336" type="line"/>
    </contour>
    <contour>
      <point x="345" y="586" type="line"/>
      <point x="276" y="586" type="line" smooth="yes"/>
      <point x="156" y="586"/>
      <point x="94" y="553"/>
      <point x="94" y="484" type="curve" smooth="yes"/>
      <point x="94" y="447"/>
      <point x="117" y="410"/>
      <point x="176" y="410" type="curve" smooth="yes"/>
      <point x="236" y="410"/>
      <point x="284" y="436"/>
      <point x="324" y="460" type="curve"/>
    </contour>
  </outline>
</glyph>
<glyph name="guillemotleft" format="1">
  <advance width="291"/>
  <unicode hex="00AB"/>
  <outline>
    <contour>
      <point x="274" y="331" type="line"/>
      <point x="268" y="308" type="line"/>
      <point x="132" y="202" type="line"/>
      <point x="228" y="104" type="line"/>
      <point x="226" y="80" type="line"/>
      <point x="106" y="194" type="line"/>
      <point x="110" y="216" type="line"/>
    </contour>
    <contour>
      <point x="162" y="331" type="line"/>
      <point x="156" y="308" type="line"/>
      <point x="20" y="202" type="line"/>
      <point x="116" y="104" type="line"/>
      <point x="114" y="80" type="line"/>
      <point x="-6" y="194" type="line"/>
      <point x="-2" y="216" type="line"/>
    </contour>
  </outline>
</glyph>
<glyph name="degree" format="1">
  <advance width="349"/>
  <unicode hex="00B0"/>
  <outline>
    <contour>
      <point x="336" y="601" type="curve" smooth="yes"/>
      <point x="336" y="522"/>
      <point x="273" y="459"/>
      <point x="194" y="459" type="curve" smooth="yes"/>
      <point x="116" y="459"/>
      <point x="53" y="522"/>
      <point x="53" y="601" type="curve" smooth="yes"/>
      <point x="53" y="679"/>
      <point x="116" y="742"/>
      <point x="194" y="742" type="curve" smooth="yes"/>
      <point x="273" y="742"/>
      <point x="336" y="679"/>
    </contour>
    <contour>
      <point x="318" y="601" type="curve" smooth="yes"/>
      <point x="318" y="670"/>
      <point x="264" y="724"/>
      <point x="194" y="724" type="curve" smooth="yes"/>
      <point x="125" y="724"/>
      <point x="71" y="670"/>
      <point x="71" y="601" type="curve" smooth="yes"/>
      <point x="71" y="531"/>
      <point x="125" y="477"/>
      <point x="194" y="477" type="curve" smooth="yes"/>
      <point x="264" y="477"/>
      <point x="318" y="531"/>
    </contour>
  </outline>
</glyph>
<glyph name="twosuperior" format="1">
  <advance width="385"/>
  <unicode hex="00B2"/>
  <outline>
    <contour>
      <point x="275" y="526" type="curve" smooth="yes"/>
      <point x="110" y="380" type="line"/>
      <point x="300" y="380" type="line"/>
      <point x="296" y="359" type="line"/>
      <point x="55" y="359" type="line"/>
      <point x="265" y="543" type="line" smooth="yes"/>
      <point x="304" y="578"/>
      <point x="325" y="609"/>
      <point x="325" y="648" type="curve" smooth="yes"/>
      <point x="325" y="685"/>
      <point x="300" y="720"/>
      <point x="248" y="720" type="curve" smooth="yes"/>
      <point x="199" y="720"/>
      <point x="165" y="697"/>
      <point x="144" y="646" type="curve"/>
      <point x="121" y="646" type="line"/>
      <point x="145" y="707"/>
      <point x="186" y="740"/>
      <point x="249" y="740" type="curve" smooth="yes"/>
      <point x="311" y="740"/>
      <point x="346" y="698"/>
      <point x="346" y="648" type="curve" smooth="yes"/>
      <point x="346" y="608"/>
      <point x="331" y="576"/>
    </contour>
  </outline>
</glyph>
<glyph name="paragraph" format="1">
  <advance width="591"/>
  <unicode hex="00B6"/>
  <outline>
    <contour>
      <point x="582" y="730" type="line"/>
      <point x="420" y="-179" type="line"/>
      <point x="398" y="-179" type="line"/>
      <point x="554" y="710" type="line"/>
      <point x="467" y="710" type="line"/>
      <point x="310" y="-179" type="line"/>
      <point x="288" y="-179" type="line"/>
      <point x="361" y="229" type="line"/>
      <point x="342" y="229" type="line" smooth="yes"/>
      <point x="158" y="229"/>
      <point x="47" y="313"/>
      <point x="47" y="454" type="curve" smooth="yes"/>
      <point x="47" y="611"/>
      <point x="177" y="730"/>
      <point x="350" y="730" type="curve" smooth="yes"/>
    </contour>
    <contour>
      <point x="444" y="710" type="line"/>
      <point x="350" y="710" type="line" smooth="yes"/>
      <point x="185" y="710"/>
      <point x="69" y="595"/>
      <point x="69" y="460" type="curve" smooth="yes"/>
      <point x="69" y="328"/>
      <point x="163" y="249"/>
      <point x="345" y="249" type="curve" smooth="yes"/>
      <point x="364" y="249" type="line"/>
    </contour>
  </outline>
</glyph>
<glyph name="periodcentered" format="1">
  <advance width="154"/>
  <unicode hex="00B7"/>
  <outline>
    <contour>
      <point x="93" y="393" type="line"/>
      <point x="80" y="322" type="line"/>
      <point x="58" y="322" type="line"/>
      <point x="71" y="393" type="line"/>
    </contour>
  </outline>
</glyph>
<glyph name="cedilla" format="1">
  <advance width="410"/>
  <unicode hex="00B8"/>
  <outline>
    <contour>
      <point x="286" y="-99" type="curve" smooth="yes"/>
      <point x="286" y="-150"/>
      <point x="245" y="-179"/>
      <point x="187" y="-179" type="curve" smooth="yes"/>
      <point x="151" y="-179"/>
      <point x="123" y="-168"/>
      <point x="100" y="-146" type="curve"/>
      <point x="114" y="-132" type="line"/>
      <point x="133" y="-151"/>
      <point x="161" y="-159"/>
      <point x="191" y="-159" type="curve" smooth="yes"/>
      <point x="230" y="-159"/>
      <point x="265" y="-141"/>
      <point x="265" y="-102" type="curve" smooth="yes"/>
      <point x="265" y="-81"/>
      <point x="246" y="-69"/>
      <point x="208" y="-69" type="curve" smooth="yes"/>
      <point x="194" y="-69"/>
      <point x="177" y="-71"/>
      <point x="159" y="-74" type="curve"/>
      <point x="155" y="-65" type="line"/>
      <point x="212" y="0" type="line"/>
      <point x="235" y="0" type="line"/>
      <point x="186" y="-54" type="line"/>
      <point x="194" y="-53"/>
      <point x="204" y="-51"/>
      <point x="218" y="-51" type="curve" smooth="yes"/>
      <point x="249" y="-51"/>
      <point x="286" y="-63"/>
    </contour>
  </outline>
</glyph>
<glyph name="ordmasculine" format="1">
  <advance width="452"/>
  <unicode hex="00BA"/>
  <outline>
    <contour>
      <point x="438" y="587" type="curve" smooth="yes"/>
      <point x="438" y="477"/>
      <point x="347" y="389"/>
      <point x="236" y="389" type="curve" smooth="yes"/>
      <point x="128" y="389"/>
      <point x="74" y="465"/>
      <point x="74" y="545" type="curve" smooth="yes"/>
      <point x="74" y="652"/>
      <point x="159" y="744"/>
      <point x="276" y="744" type="curve" smooth="yes"/>
      <point x="384" y="744"/>
      <point x="438" y="665"/>
    </contour>
    <contour>
      <point x="385" y="336" type="line"/>
      <point x="381" y="316" type="line"/>
      <point x="63" y="316" type="line"/>
      <point x="67" y="336" type="line"/>
    </contour>
    <contour>
      <point x="416" y="587" type="curve" smooth="yes"/>
      <point x="416" y="654"/>
      <point x="369" y="724"/>
      <point x="276" y="724" type="curve" smooth="yes"/>
      <point x="171" y="724"/>
      <point x="96" y="640"/>
      <point x="96" y="545" type="curve" smooth="yes"/>
      <point x="96" y="477"/>
      <point x="144" y="409"/>
      <point x="236" y="409" type="curve" smooth="yes"/>
      <point x="335" y="409"/>
      <point x="416" y="489"/>
    </contour>
  </outline>
</glyph>
<glyph name="guillemotright" format="1">
  <advance width="291"/>
  <unicode hex="00BB"/>
  <outline>
    <contour>
      <point x="254" y="218" type="line"/>
      <point x="250" y="196" type="line"/>
      <point x="86" y="81" type="line"/>
      <point x="92" y="104" type="line"/>
      <point x="228" y="210" type="line"/>
      <point x="132" y="308" type="line"/>
      <point x="134" y="332" type="line"/>
    </contour>
    <contour>
      <point x="142" y="218" type="line"/>
      <point x="138" y="196" type="line"/>
      <point x="-26" y="81" type="line"/>
      <point x="-20" y="104" type="line"/>
      <point x="116" y="210" type="line"/>
      <point x="20" y="308" type="line"/>
      <point x="22" y="332" type="line"/>
    </contour>
  </outline>
</glyph>
<glyph name="onequarter" format="1">
  <advance width="754"/>
  <unicode hex="00BC"/>
  <outline>
    <contour>
      <point x="174" y="355" type="line"/>
      <point x="153" y="355" type="line"/>
      <point x="211" y="683" type="line"/>
      <point x="194" y="667"/>
      <point x="171" y="654"/>
      <point x="141" y="649" type="curve"/>
      <point x="145" y="671" type="line"/>
      <point x="174" y="673"/>
      <point x="209" y="702"/>
      <point x="220" y="730" type="curve"/>
      <point x="241" y="730" type="line"/>
    </contour>
    <contour>
      <point x="712" y="730" type="line"/>
      <point x="47" y="0" type="line"/>
      <point x="21" y="0" type="line"/>
      <point x="686" y="730" type="line"/>
    </contour>
    <contour>
      <point x="624" y="101" type="line"/>
      <point x="563" y="101" type="line"/>
      <point x="545" y="0" type="line"/>
      <point x="524" y="0" type="line"/>
      <point x="542" y="101" type="line"/>
      <point x="372" y="101" type="line"/>
      <point x="375" y="115" type="line"/>
      <point x="602" y="375" type="line"/>
      <point x="612" y="375" type="line"/>
      <point x="567" y="121" type="line"/>
      <point x="627" y="121" type="line"/>
    </contour>
    <contour>
      <point x="405" y="121" type="line"/>
      <point x="546" y="121" type="line"/>
      <point x="582" y="324" type="line"/>
    </contour>
  </outline>
</glyph>
<glyph name="onehalf" format="1">
  <advance width="784"/>
  <unicode hex="00BD"/>
  <outline>
    <contour>
      <point x="174" y="355" type="line"/>
      <point x="153" y="355" type="line"/>
      <point x="211" y="683" type="line"/>
      <point x="194" y="667"/>
      <point x="171" y="654"/>
      <point x="141" y="649" type="curve"/>
      <point x="145" y="671" type="line"/>
      <point x="174" y="673"/>
      <point x="209" y="702"/>
      <point x="220" y="730" type="curve"/>
      <point x="241" y="730" type="line"/>
    </contour>
    <contour>
      <point x="712" y="730" type="line"/>
      <point x="47" y="0" type="line"/>
      <point x="21" y="0" type="line"/>
      <point x="686" y="730" type="line"/>
    </contour>
    <contour>
      <point x="618" y="167" type="curve" smooth="yes"/>
      <point x="453" y="21" type="line"/>
      <point x="643" y="21" type="line"/>
      <point x="639" y="0" type="line"/>
      <point x="398" y="0" type="line"/>
      <point x="608" y="184" type="line" smooth="yes"/>
      <point x="647" y="219"/>
      <point x="668" y="250"/>
      <point x="668" y="289" type="curve" smooth="yes"/>
      <point x="668" y="326"/>
      <point x="643" y="361"/>
      <point x="591" y="361" type="curve" smooth="yes"/>
      <point x="542" y="361"/>
      <point x="508" y="338"/>
      <point x="487" y="287" type="curve"/>
      <point x="464" y="287" type="line"/>
      <point x="488" y="348"/>
      <point x="529" y="381"/>
      <point x="592" y="381" type="curve" smooth="yes"/>
      <point x="654" y="381"/>
      <point x="689" y="339"/>
      <point x="689" y="289" type="curve" smooth="yes"/>
      <point x="689" y="249"/>
      <point x="674" y="217"/>
    </contour>
  </outline>
</glyph>
<glyph name="threequarters" format="1">
  <advance width="825"/>
  <unicode hex="00BE"/>
  <outline>
    <contour>
      <point x="187" y="549" type="curve"/>
      <point x="190" y="569" type="line"/>
      <point x="190" y="569"/>
      <point x="242" y="569"/>
      <point x="247" y="570" type="curve" smooth="yes"/>
      <point x="300" y="577"/>
      <point x="331" y="611"/>
      <point x="331" y="653" type="curve" smooth="yes"/>
      <point x="331" y="700"/>
      <point x="289" y="719"/>
      <point x="250" y="719" type="curve" smooth="yes"/>
      <point x="214" y="719"/>
      <point x="189" y="710"/>
      <point x="164" y="690" type="curve"/>
      <point x="150" y="706" type="line"/>
      <point x="177" y="728"/>
      <point x="210" y="740"/>
      <point x="250" y="740" type="curve" smooth="yes"/>
      <point x="302" y="740"/>
      <point x="352" y="713"/>
      <point x="352" y="653" type="curve" smooth="yes"/>
      <point x="352" y="612"/>
      <point x="327" y="576"/>
      <point x="280" y="559" type="curve"/>
      <point x="317" y="542"/>
      <point x="336" y="513"/>
      <point x="336" y="469" type="curve" smooth="yes"/>
      <point x="336" y="401"/>
      <point x="288" y="352"/>
      <point x="214" y="352" type="curve" smooth="yes"/>
      <point x="158" y="352"/>
      <point x="105" y="378"/>
      <point x="80" y="434" type="curve"/>
      <point x="100" y="444" type="line"/>
      <point x="120" y="396"/>
      <point x="166" y="373"/>
      <point x="214" y="373" type="curve" smooth="yes"/>
      <point x="275" y="373"/>
      <point x="315" y="413"/>
      <point x="315" y="469" type="curve" smooth="yes"/>
      <point x="315" y="533"/>
      <point x="259" y="549"/>
      <point x="241" y="549" type="curve" smooth="yes"/>
      <point x="237" y="549"/>
      <point x="187" y="549"/>
    </contour>
    <contour>
      <point x="783" y="730" type="line"/>
      <point x="118" y="0" type="line"/>
      <point x="92" y="0" type="line"/>
      <point x="757" y="730" type="line"/>
    </contour>
    <contour>
      <point x="695" y="101" type="line"/>
      <point x="634" y="101" type="line"/>
      <point x="616" y="0" type="line"/>
      <point x="595" y="0" type="line"/>
      <point x="613" y="101" type="line"/>
      <point x="443" y="101" type="line"/>
      <point x="446" y="115" type="line"/>
      <point x="673" y="375" type="line"/>
      <point x="683" y="375" type="line"/>
      <point x="638" y="121" type="line"/>
      <point x="698" y="121" type="line"/>
    </contour>
    <contour>
      <point x="476" y="121" type="line"/>
      <point x="617" y="121" type="line"/>
      <point x="653" y="324" type="line"/>
    </contour>
  </outline>
</glyph>
<glyph name="questiondown" format="1">
  <advance width="435"/>
  <unicode hex="00BF"/>
  <outline>
    <contour>
      <point x="282" y="670" type="line"/>
      <point x="295" y="742" type="line"/>
      <point x="317" y="742" type="line"/>
      <point x="304" y="670" type="line"/>
    </contour>
    <contour>
      <point x="13" y="151" type="curve" smooth="yes"/>
      <point x="13" y="215"/>
      <point x="52" y="273"/>
      <point x="137" y="362" type="curve" smooth="yes"/>
      <point x="214" y="442"/>
      <point x="253" y="494"/>
      <point x="265" y="566" type="curve" smooth="yes"/>
      <point x="275" y="624" type="line"/>
      <point x="297" y="624" type="line"/>
      <point x="287" y="566" type="line" smooth="yes"/>
      <point x="274" y="493"/>
      <point x="244" y="447"/>
      <point x="151" y="347" type="curve" smooth="yes"/>
      <point x="57" y="247"/>
      <point x="35" y="206"/>
      <point x="35" y="146" type="curve" smooth="yes"/>
      <point x="35" y="75"/>
      <point x="97" y="20"/>
      <point x="179" y="20" type="curve" smooth="yes"/>
      <point x="239" y="20"/>
      <point x="290" y="43"/>
      <point x="327" y="104" type="curve"/>
      <point x="344" y="93" type="line"/>
      <point x="303" y="24"/>
      <point x="237" y="0"/>
      <point x="179" y="0" type="curve" smooth="yes"/>
      <point x="77" y="0"/>
      <point x="13" y="72"/>
    </contour>
  </outline>
</glyph>
<glyph name="Adieresis" format="1">
  <advance width="583"/>
  <unicode hex="00C4"/>
  <outline>
    <contour>
      <point x="529" y="730" type="line"/>
      <point x="514" y="646" type="line"/>
      <point x="492" y="646" type="line"/>
      <point x="507" y="730" type="line"/>
    </contour>
    <contour>
      <point x="199" y="730" type="line"/>
      <point x="184" y="646" type="line"/>
      <point x="162" y="646" type="line"/>
      <point x="177" y="730" type="line"/>
    </contour>
    <component base="A"/>
  </outline>
</glyph>
<glyph name="Aring" format="1">
  <advance width="583"/>
  <unicode hex="00C5"/>
  <outline>
    <contour>
      <point x="338" y="717" type="line"/>
      <point x="303" y="725"/>
      <point x="277" y="757"/>
      <point x="277" y="797" type="curve" smooth="yes"/>
      <point x="277" y="851"/>
      <point x="323" y="896"/>
      <point x="376" y="896" type="curve" smooth="yes"/>
      <point x="421" y="896"/>
      <point x="459" y="861"/>
      <point x="459" y="813" type="curve" smooth="yes"/>
      <point x="459" y="763"/>
      <point x="421" y="723"/>
      <point x="374" y="715" type="curve"/>
      <point x="499" y="0" type="line"/>
      <point x="477" y="0" type="line"/>
      <point x="426" y="290" type="line"/>
      <point x="141" y="290" type="line"/>
      <point x="-9" y="0" type="line"/>
      <point x="-33" y="0" type="line"/>
    </contour>
    <contour>
      <point x="439" y="812" type="curve" smooth="yes"/>
      <point x="439" y="848"/>
      <point x="412" y="877"/>
      <point x="376" y="877" type="curve" smooth="yes"/>
      <point x="336" y="877"/>
      <point x="297" y="844"/>
      <point x="297" y="799" type="curve" smooth="yes"/>
      <point x="297" y="762"/>
      <point x="325" y="733"/>
      <point x="357" y="733" type="curve" smooth="yes"/>
      <point x="408" y="733"/>
      <point x="439" y="773"/>
    </contour>
    <contour>
      <point x="151" y="310" type="line"/>
      <point x="422" y="310" type="line"/>
      <point x="354" y="703" type="line"/>
    </contour>
  </outline>
</glyph>
<glyph name="AE" format="1">
  <advance width="854"/>
  <unicode hex="00C6"/>
  <outline>
    <contour>
      <point x="848" y="730" type="line"/>
      <point x="845" y="710" type="line"/>
      <point x="518" y="710" type="line"/>
      <point x="465" y="395" type="line"/>
      <point x="747" y="395" type="line"/>
      <point x="744" y="377" type="line"/>
      <point x="461" y="377" type="line"/>
      <point x="400" y="20" type="line"/>
      <point x="745" y="20" type="line"/>
      <point x="742" y="0" type="line"/>
      <point x="378" y="0" type="line"/>
      <point x="419" y="241" type="line"/>
      <point x="166" y="241" type="line"/>
      <point x="-9" y="0" type="line"/>
      <point x="-33" y="0" type="line"/>
      <point x="496" y="730" type="line"/>
    </contour>
    <contour>
      <point x="497" y="701" type="line"/>
      <point x="180" y="260" type="line"/>
      <point x="422" y="260" type="line"/>
    </contour>
  </outline>
</glyph>
<glyph name="Ccedilla" format="1">
  <advance width="697"/>
  <unicode hex="00C7"/>
  <outline>
    <contour>
      <point x="307" y="-9" type="line"/>
      <point x="169" y="10"/>
      <point x="45" y="129"/>
      <point x="45" y="317" type="curve" smooth="yes"/>
      <point x="45" y="516"/>
      <point x="187" y="742"/>
      <point x="432" y="742" type="curve" smooth="yes"/>
      <point x="550" y="742"/>
      <point x="636" y="689"/>
      <point x="678" y="614" type="curve"/>
      <point x="660" y="603" type="line"/>
      <point x="615" y="678"/>
      <point x="535" y="722"/>
      <point x="432" y="722" type="curve" smooth="yes"/>
      <point x="201" y="722"/>
      <point x="66" y="506"/>
      <point x="66" y="317" type="curve" smooth="yes"/>
      <point x="66" y="127"/>
      <point x="204" y="8"/>
      <point x="348" y="8" type="curve" smooth="yes"/>
      <point x="461" y="8"/>
      <point x="539" y="58"/>
      <point x="590" y="106" type="curve"/>
      <point x="604" y="90" type="line"/>
      <point x="550" y="39"/>
      <point x="466" y="-12"/>
      <point x="346" y="-12" type="curve" smooth="yes"/>
      <point x="340" y="-12"/>
      <point x="334" y="-12"/>
      <point x="328" y="-11" type="curve"/>
      <point x="289" y="-54" type="line"/>
      <point x="297" y="-53"/>
      <point x="307" y="-51"/>
      <point x="321" y="-51" type="curve" smooth="yes"/>
      <point x="352" y="-51"/>
      <point x="389" y="-63"/>
      <point x="389" y="-99" type="curve" smooth="yes"/>
      <point x="389" y="-150"/>
      <point x="348" y="-179"/>
      <point x="290" y="-179" type="curve" smooth="yes"/>
      <point x="254" y="-179"/>
      <point x="226" y="-168"/>
      <point x="203" y="-146" type="curve"/>
      <point x="217" y="-132" type="line"/>
      <point x="236" y="-151"/>
      <point x="264" y="-159"/>
      <point x="294" y="-159" type="curve" smooth="yes"/>
      <point x="333" y="-159"/>
      <point x="368" y="-141"/>
      <point x="368" y="-102" type="curve" smooth="yes"/>
      <point x="368" y="-81"/>
      <point x="349" y="-69"/>
      <point x="311" y="-69" type="curve" smooth="yes"/>
      <point x="297" y="-69"/>
      <point x="280" y="-71"/>
      <point x="262" y="-74" type="curve"/>
      <point x="258" y="-65" type="line"/>
    </contour>
  </outline>
</glyph>
<glyph name="Eth" format="1">
  <advance width="623"/>
  <unicode hex="00D0"/>
  <outline>
    <contour>
      <point x="85" y="372" type="line"/>
      <point x="28" y="372" type="line"/>
      <point x="31" y="392" type="line"/>
      <point x="88" y="392" type="line"/>
      <point x="146" y="730" type="line"/>
      <point x="257" y="730" type="line" smooth="yes"/>
      <point x="456" y="730"/>
      <point x="588" y="604"/>
      <point x="588" y="421" type="curve" smooth="yes"/>
      <point x="588" y="145"/>
      <point x="375" y="0"/>
      <point x="140" y="0" type="curve" smooth="yes"/>
      <point x="21" y="0" type="line"/>
    </contour>
    <contour>
      <point x="109" y="392" type="line"/>
      <point x="290" y="392" type="line"/>
      <point x="287" y="372" type="line"/>
      <point x="106" y="372" type="line"/>
      <point x="46" y="20" type="line"/>
      <point x="140" y="20" type="line" smooth="yes"/>
      <point x="366" y="20"/>
      <point x="567" y="159"/>
      <point x="567" y="421" type="curve" smooth="yes"/>
      <point x="567" y="592"/>
      <point x="443" y="710"/>
      <point x="256" y="710" type="curve" smooth="yes"/>
      <point x="163" y="710" type="line"/>
    </contour>
  </outline>
</glyph>
<glyph name="Odieresis" format="1">
  <advance width="780"/>
  <unicode hex="00D6"/>
  <outline>
    <contour>
      <point x="757" y="730" type="line"/>
      <point x="742" y="646" type="line"/>
      <point x="720" y="646" type="line"/>
      <point x="735" y="730" type="line"/>
    </contour>
    <contour>
      <point x="137" y="730" type="line"/>
      <point x="122" y="646" type="line"/>
      <point x="100" y="646" type="line"/>
      <point x="115" y="730" type="line"/>
    </contour>
    <component base="O"/>
  </outline>
</glyph>
<glyph name="multiply" format="1">
  <advance width="483"/>
  <unicode hex="00D7"/>
  <outline>
    <contour>
      <point x="237" y="315" type="line"/>
      <point x="77" y="179" type="line"/>
      <point x="66" y="193" type="line"/>
      <point x="225" y="329" type="line"/>
      <point x="109" y="470" type="line"/>
      <point x="124" y="483" type="line"/>
      <point x="240" y="341" type="line"/>
      <point x="406" y="483" type="line"/>
      <point x="418" y="469" type="line"/>
      <point x="251" y="328" type="line"/>
      <point x="364" y="191" type="line"/>
      <point x="350" y="179" type="line"/>
    </contour>
  </outline>
</glyph>
<glyph name="Oslash" format="1">
  <advance width="780"/>
  <unicode hex="00D8"/>
  <outline>
    <contour>
      <point x="669" y="622" type="line"/>
      <point x="711" y="567"/>
      <point x="735" y="498"/>
      <point x="735" y="423" type="curve" smooth="yes"/>
      <point x="735" y="195"/>
      <point x="579" y="-12"/>
      <point x="354" y="-12" type="curve" smooth="yes"/>
      <point x="260" y="-12"/>
      <point x="181" y="26"/>
      <point x="126" y="87" type="curve"/>
      <point x="22" y="-15" type="line"/>
      <point x="9" y="1" type="line"/>
      <point x="113" y="103" type="line"/>
      <point x="70" y="159"/>
      <point x="45" y="230"/>
      <point x="45" y="307" type="curve" smooth="yes"/>
      <point x="45" y="535"/>
      <point x="202" y="742"/>
      <point x="426" y="742" type="curve" smooth="yes"/>
      <point x="520" y="742"/>
      <point x="601" y="702"/>
      <point x="656" y="638" type="curve"/>
      <point x="762" y="742" type="line"/>
      <point x="775" y="726" type="line"/>
    </contour>
    <contour>
      <point x="128" y="118" type="curve"/>
      <point x="641" y="623" type="line"/>
      <point x="590" y="684"/>
      <point x="513" y="722"/>
      <point x="426" y="722" type="curve" smooth="yes"/>
      <point x="213" y="722"/>
      <point x="66" y="521"/>
      <point x="66" y="307" type="curve" smooth="yes"/>
      <point x="66" y="236"/>
      <point x="89" y="170"/>
    </contour>
    <contour>
      <point x="654" y="607" type="curve"/>
      <point x="141" y="102" type="line"/>
      <point x="192" y="44"/>
      <point x="266" y="8"/>
      <point x="354" y="8" type="curve" smooth="yes"/>
      <point x="567" y="8"/>
      <point x="714" y="207"/>
      <point x="714" y="423" type="curve" smooth="yes"/>
      <point x="714" y="492"/>
      <point x="692" y="556"/>
    </contour>
  </outline>
</glyph>
<glyph name="Thorn" format="1">
  <advance width="498"/>
  <unicode hex="00DE"/>
  <outline>
    <contour>
      <point x="211" y="181" type="curve" smooth="yes"/>
      <point x="73" y="181" type="line"/>
      <point x="41" y="0" type="line"/>
      <point x="20" y="0" type="line"/>
      <point x="144" y="730" type="line"/>
      <point x="165" y="730" type="line"/>
      <point x="141" y="582" type="line"/>
      <point x="240" y="582" type="line" smooth="yes"/>
      <point x="396" y="582"/>
      <point x="467" y="522"/>
      <point x="467" y="406" type="curve" smooth="yes"/>
      <point x="467" y="284"/>
      <point x="381" y="181"/>
    </contour>
    <contour>
      <point x="233" y="562" type="curve" smooth="yes"/>
      <point x="137" y="562" type="line"/>
      <point x="76" y="201" type="line"/>
      <point x="208" y="201" type="line" smooth="yes"/>
      <point x="372" y="201"/>
      <point x="446" y="297"/>
      <point x="446" y="408" type="curve" smooth="yes"/>
      <point x="446" y="506"/>
      <point x="383" y="562"/>
    </contour>
  </outline>
</glyph>
<glyph name="germandbls" format="1">
  <advance width="441"/>
  <unicode hex="00DF"/>
  <outline>
    <contour>
      <point x="394" y="624" type="curve" smooth="yes"/>
      <point x="394" y="507"/>
      <point x="306" y="429"/>
      <point x="236" y="424" type="curve"/>
      <point x="293" y="415"/>
      <point x="366" y="361"/>
      <point x="367" y="235" type="curve" smooth="yes"/>
      <point x="368" y="123"/>
      <point x="321" y="-12"/>
      <point x="189" y="-12" type="curve" smooth="yes"/>
      <point x="154" y="-12"/>
      <point x="131" y="-2"/>
      <point x="111" y="10" type="curve"/>
      <point x="122" y="29" type="line"/>
      <point x="140" y="18"/>
      <point x="162" y="8"/>
      <point x="192" y="8" type="curve" smooth="yes"/>
      <point x="293" y="8"/>
      <point x="346" y="118"/>
      <point x="346" y="224" type="curve" smooth="yes"/>
      <point x="346" y="334"/>
      <point x="290" y="413"/>
      <point x="189" y="413" type="curve" smooth="yes"/>
      <point x="180" y="413" type="line"/>
      <point x="183" y="433" type="line"/>
      <point x="198" y="433" type="line" smooth="yes"/>
      <point x="287" y="433"/>
      <point x="372" y="514"/>
      <point x="372" y="617" type="curve" smooth="yes"/>
      <point x="372" y="683"/>
      <point x="332" y="722"/>
      <point x="269" y="722" type="curve" smooth="yes"/>
      <point x="193" y="722"/>
      <point x="142" y="657"/>
      <point x="128" y="577" type="curve" smooth="yes"/>
      <point x="-1" y="-179" type="line"/>
      <point x="-22" y="-179" type="line"/>
      <point x="107" y="577" type="line" smooth="yes"/>
      <point x="123" y="671"/>
      <point x="180" y="742"/>
      <point x="273" y="742" type="curve" smooth="yes"/>
      <point x="347" y="742"/>
      <point x="394" y="691"/>
    </contour>
  </outline>
</glyph>
<glyph name="ae" format="1">
  <advance width="756"/>
  <unicode hex="00E6"/>
  <outline>
    <contour>
      <point x="682" y="229" type="curve" smooth="yes"/>
      <point x="682" y="212" type="line"/>
      <point x="315" y="212" type="line"/>
      <point x="313" y="199"/>
      <point x="311" y="182"/>
      <point x="311" y="162" type="curve" smooth="yes"/>
      <point x="311" y="76"/>
      <point x="359" y="8"/>
      <point x="467" y="8" type="curve" smooth="yes"/>
      <point x="521" y="8"/>
      <point x="562" y="24"/>
      <point x="604" y="58" type="curve"/>
      <point x="619" y="44" type="line"/>
      <point x="588" y="15"/>
      <point x="539" y="-12"/>
      <point x="467" y="-12" type="curve" smooth="yes"/>
      <point x="390" y="-12"/>
      <point x="334" y="22"/>
      <point x="307" y="79" type="curve"/>
      <point x="255" y="33"/>
      <point x="195" y="-12"/>
      <point x="109" y="-12" type="curve" smooth="yes"/>
      <point x="47" y="-12"/>
      <point x="-6" y="27"/>
      <point x="-6" y="98" type="curve" smooth="yes"/>
      <point x="-6" y="180"/>
      <point x="58" y="242"/>
      <point x="220" y="242" type="curve" smooth="yes"/>
      <point x="301" y="242" type="line"/>
      <point x="301" y="244"/>
      <point x="306" y="272"/>
      <point x="306" y="273" type="curve"/>
      <point x="319" y="352"/>
      <point x="277" y="393"/>
      <point x="203" y="393" type="curve" smooth="yes"/>
      <point x="158" y="393"/>
      <point x="121" y="381"/>
      <point x="87" y="362" type="curve"/>
      <point x="80" y="380" type="line"/>
      <point x="118" y="400"/>
      <point x="155" y="413"/>
      <point x="211" y="413" type="curve" smooth="yes"/>
      <point x="296" y="413"/>
      <point x="331" y="353"/>
      <point x="328" y="302" type="curve"/>
      <point x="367" y="364"/>
      <point x="434" y="413"/>
      <point x="514" y="413" type="curve" smooth="yes"/>
      <point x="632" y="413"/>
      <point x="682" y="315"/>
    </contour>
    <contour>
      <point x="660" y="233" type="line"/>
      <point x="658" y="327"/>
      <point x="604" y="393"/>
      <point x="512" y="393" type="curve" smooth="yes"/>
      <point x="423" y="393"/>
      <point x="345" y="324"/>
      <point x="320" y="233" type="curve"/>
    </contour>
    <contour>
      <point x="296" y="222" type="curve"/>
      <point x="220" y="222" type="line" smooth="yes"/>
      <point x="87" y="222"/>
      <point x="15" y="182"/>
      <point x="15" y="98" type="curve" smooth="yes"/>
      <point x="15" y="52"/>
      <point x="44" y="8"/>
      <point x="109" y="8" type="curve" smooth="yes"/>
      <point x="168" y="8"/>
      <point x="234" y="38"/>
      <point x="300" y="97" type="curve"/>
      <point x="288" y="132"/>
      <point x="289" y="186"/>
    </contour>
  </outline>
</glyph>
<glyph name="ccedilla" format="1">
  <advance width="453"/>
  <unicode hex="00E7"/>
  <outline>
    <contour>
      <point x="154" y="-10" type="curve"/>
      <point x="58" y="5"/>
      <point x="8" y="86"/>
      <point x="8" y="171" type="curve" smooth="yes"/>
      <point x="8" y="297"/>
      <point x="104" y="413"/>
      <point x="233" y="413" type="curve" smooth="yes"/>
      <point x="320" y="413"/>
      <point x="367" y="370"/>
      <point x="390" y="322" type="curve"/>
      <point x="372" y="312" type="line"/>
      <point x="348" y="363"/>
      <point x="301" y="393"/>
      <point x="233" y="393" type="curve" smooth="yes"/>
      <point x="116" y="393"/>
      <point x="29" y="285"/>
      <point x="29" y="171" type="curve" smooth="yes"/>
      <point x="29" y="88"/>
      <point x="84" y="8"/>
      <point x="188" y="8" type="curve" smooth="yes"/>
      <point x="246" y="8"/>
      <point x="300" y="34"/>
      <point x="337" y="77" type="curve"/>
      <point x="353" y="63" type="line"/>
      <point x="311" y="17"/>
      <point x="253" y="-12"/>
      <point x="188" y="-12" type="curve" smooth="yes"/>
      <point x="184" y="-12"/>
      <point x="180" y="-12"/>
      <point x="175" y="-12" type="curve"/>
      <point x="137" y="-54" type="line"/>
      <point x="145" y="-53"/>
      <point x="155" y="-51"/>
      <point x="169" y="-51" type="curve" smooth="yes"/>
      <point x="200" y="-51"/>
      <point x="237" y="-63"/>
      <point x="237" y="-99" type="curve" smooth="yes"/>
      <point x="237" y="-150"/>
      <point x="196" y="-179"/>
      <point x="138" y="-179" type="curve" smooth="yes"/>
      <point x="102" y="-179"/>
      <point x="74" y="-168"/>
      <point x="51" y="-146" type="curve"/>
      <point x="65" y="-132" type="line"/>
      <point x="84" y="-151"/>
      <point x="112" y="-159"/>
      <point x="142" y="-159" type="curve" smooth="yes"/>
      <point x="181" y="-159"/>
      <point x="216" y="-141"/>
      <point x="216" y="-102" type="curve" smooth="yes"/>
      <point x="216" y="-81"/>
      <point x="197" y="-69"/>
      <point x="159" y="-69" type="curve" smooth="yes"/>
      <point x="145" y="-69"/>
      <point x="128" y="-71"/>
      <point x="110" y="-74" type="curve"/>
      <point x="106" y="-65" type="line"/>
      <point x="106" y="-65"/>
      <point x="155" y="-10"/>
    </contour>
  </outline>
</glyph>
<glyph name="eth" format="1">
  <advance width="460"/>
  <unicode hex="00F0"/>
  <outline>
    <contour>
      <point x="320" y="595" type="curve"/>
      <point x="320" y="596"/>
      <point x="211" y="532"/>
      <point x="211" y="532" type="curve"/>
      <point x="202" y="549" type="line"/>
      <point x="309" y="612" type="line"/>
      <point x="282" y="657"/>
      <point x="249" y="696"/>
      <point x="209" y="731" type="curve"/>
      <point x="220" y="748" type="line"/>
      <point x="263" y="711"/>
      <point x="300" y="669"/>
      <point x="328" y="623" type="curve"/>
      <point x="424" y="680" type="line"/>
      <point x="433" y="662" type="line"/>
      <point x="338" y="607" type="line"/>
      <point x="391" y="515"/>
      <point x="416" y="406"/>
      <point x="416" y="274" type="curve" smooth="yes"/>
      <point x="416" y="89"/>
      <point x="319" y="-12"/>
      <point x="188" y="-12" type="curve" smooth="yes"/>
      <point x="69" y="-12"/>
      <point x="8" y="77"/>
      <point x="8" y="171" type="curve" smooth="yes"/>
      <point x="8" y="297"/>
      <point x="102" y="405"/>
      <point x="231" y="405" type="curve" smooth="yes"/>
      <point x="314" y="405"/>
      <point x="368" y="359"/>
      <point x="394" y="302" type="curve"/>
      <point x="391" y="419"/>
      <point x="365" y="514"/>
    </contour>
    <contour>
      <point x="231" y="385" type="curve" smooth="yes"/>
      <point x="114" y="385"/>
      <point x="29" y="285"/>
      <point x="29" y="171" type="curve" smooth="yes"/>
      <point x="29" y="89"/>
      <point x="83" y="8"/>
      <point x="188" y="8" type="curve" smooth="yes"/>
      <point x="299" y="8"/>
      <point x="390" y="105"/>
      <point x="390" y="221" type="curve" smooth="yes"/>
      <point x="390" y="302"/>
      <point x="337" y="385"/>
    </contour>
  </outline>
</glyph>
<glyph name="divide" format="1">
  <advance width="483"/>
  <unicode hex="00F7"/>
  <outline>
    <contour>
      <point x="275" y="453" type="line"/>
      <point x="253" y="453" type="line"/>
      <point x="268" y="537" type="line"/>
      <point x="290" y="537" type="line"/>
    </contour>
    <contour>
      <point x="444" y="320" type="line"/>
      <point x="35" y="320" type="line"/>
      <point x="39" y="340" type="line"/>
      <point x="448" y="340" type="line"/>
    </contour>
    <contour>
      <point x="217" y="125" type="line"/>
      <point x="195" y="125" type="line"/>
      <point x="210" y="209" type="line"/>
      <point x="232" y="209" type="line"/>
    </contour>
  </outline>
</glyph>
<glyph name="oslash" format="1">
  <advance width="480"/>
  <unicode hex="00F8"/>
  <outline>
    <contour>
      <point x="44" y="57" type="line"/>
      <point x="20" y="91"/>
      <point x="8" y="133"/>
      <point x="8" y="175" type="curve" smooth="yes"/>
      <point x="8" y="301"/>
      <point x="104" y="413"/>
      <point x="233" y="413" type="curve" smooth="yes"/>
      <point x="292" y="413"/>
      <point x="336" y="390"/>
      <point x="365" y="355" type="curve"/>
      <point x="428" y="413" type="line"/>
      <point x="440" y="397" type="line"/>
      <point x="378" y="339" type="line"/>
      <point x="400" y="306"/>
      <point x="411" y="264"/>
      <point x="411" y="225" type="curve" smooth="yes"/>
      <point x="411" y="95"/>
      <point x="310" y="-12"/>
      <point x="188" y="-12" type="curve" smooth="yes"/>
      <point x="131" y="-12"/>
      <point x="87" y="10"/>
      <point x="57" y="42" type="curve"/>
      <point x="-6" y="-16" type="line"/>
      <point x="-18" y="0" type="line"/>
    </contour>
    <contour>
      <point x="60" y="72" type="curve"/>
      <point x="350" y="340" type="line"/>
      <point x="324" y="372"/>
      <point x="285" y="393"/>
      <point x="233" y="393" type="curve" smooth="yes"/>
      <point x="116" y="393"/>
      <point x="29" y="289"/>
      <point x="29" y="175" type="curve" smooth="yes"/>
      <point x="29" y="139"/>
      <point x="39" y="102"/>
    </contour>
    <contour>
      <point x="362" y="324" type="curve"/>
      <point x="72" y="57" type="line"/>
      <point x="99" y="28"/>
      <point x="137" y="8"/>
      <point x="188" y="8" type="curve" smooth="yes"/>
      <point x="299" y="8"/>
      <point x="390" y="107"/>
      <point x="390" y="225" type="curve" smooth="yes"/>
      <point x="390" y="259"/>
      <point x="381" y="295"/>
    </contour>
  </outline>
</glyph>
<glyph name="dotlessi" format="1">
  <advance width="156"/>
  <unicode hex="0131"/>
  <outline>
    <contour>
      <point x="94" y="401" type="line"/>
      <point x="27" y="0" type="line"/>
      <point x="7" y="0" type="line"/>
      <point x="73" y="401" type="line"/>
    </contour>
  </outline>
</glyph>
<glyph name="Lslash" format="1">
  <advance width="483"/>
  <unicode hex="0141"/>
  <outline>
    <contour>
      <point x="94" y="308" type="line"/>
      <point x="46" y="20" type="line"/>
      <point x="396" y="20" type="line"/>
      <point x="394" y="0" type="line"/>
      <point x="21" y="0" type="line"/>
      <point x="72" y="299" type="line"/>
      <point x="1" y="271" type="line"/>
      <point x="-4" y="289" type="line"/>
      <point x="75" y="320" type="line"/>
      <point x="145" y="730" type="line"/>
      <point x="166" y="730" type="line"/>
      <point x="98" y="329" type="line"/>
      <point x="265" y="395" type="line"/>
      <point x="270" y="377" type="line"/>
    </contour>
  </outline>
</glyph>
<glyph name="lslash" format="1">
  <advance width="186"/>
  <unicode hex="0142"/>
  <outline>
    <contour>
      <point x="95" y="318" type="line"/>
      <point x="42" y="0" type="line"/>
      <point x="22" y="0" type="line"/>
      <point x="73" y="310" type="line"/>
      <point x="10" y="286" type="line"/>
      <point x="6" y="304" type="line"/>
      <point x="77" y="331" type="line"/>
      <point x="145" y="740" type="line"/>
      <point x="166" y="740" type="line"/>
      <point x="99" y="339" type="line"/>
      <point x="179" y="370" type="line"/>
      <point x="183" y="352" type="line"/>
    </contour>
  </outline>
</glyph>
<glyph name="OE" format="1">
  <advance width="1128"/>
  <unicode hex="0152"/>
  <outline>
    <contour>
      <point x="1122" y="730" type="line"/>
      <point x="1119" y="710" type="line"/>
      <point x="793" y="710" type="line"/>
      <point x="739" y="393" type="line"/>
      <point x="1021" y="393" type="line"/>
      <point x="1018" y="375" type="line"/>
      <point x="735" y="375" type="line"/>
      <point x="675" y="20" type="line"/>
      <point x="1020" y="20" type="line"/>
      <point x="1017" y="0" type="line"/>
      <point x="653" y="0" type="line"/>
      <point x="689" y="215" type="line"/>
      <point x="627" y="83"/>
      <point x="506" y="-12"/>
      <point x="354" y="-12" type="curve" smooth="yes"/>
      <point x="172" y="-12"/>
      <point x="45" y="132"/>
      <point x="45" y="307" type="curve" smooth="yes"/>
      <point x="45" y="535"/>
      <point x="202" y="742"/>
      <point x="426" y="742" type="curve" smooth="yes"/>
      <point x="588" y="742"/>
      <point x="711" y="622"/>
      <point x="732" y="468" type="curve"/>
      <point x="777" y="730" type="line"/>
    </contour>
    <contour>
      <point x="714" y="423" type="curve" smooth="yes"/>
      <point x="714" y="586"/>
      <point x="591" y="722"/>
      <point x="426" y="722" type="curve" smooth="yes"/>
      <point x="213" y="722"/>
      <point x="66" y="523"/>
      <point x="66" y="307" type="curve" smooth="yes"/>
      <point x="66" y="144"/>
      <point x="185" y="8"/>
      <point x="354" y="8" type="curve" smooth="yes"/>
      <point x="567" y="8"/>
      <point x="714" y="207"/>
    </contour>
  </outline>
</glyph>
<glyph name="oe" format="1">
  <advance width="846"/>
  <unicode hex="0153"/>
  <outline>
    <contour>
      <point x="392" y="133" type="curve"/>
      <point x="358" y="48"/>
      <point x="279" y="-12"/>
      <point x="188" y="-12" type="curve" smooth="yes"/>
      <point x="69" y="-12"/>
      <point x="8" y="81"/>
      <point x="8" y="175" type="curve" smooth="yes"/>
      <point x="8" y="301"/>
      <point x="104" y="413"/>
      <point x="233" y="413" type="curve" smooth="yes"/>
      <point x="336" y="413"/>
      <point x="391" y="343"/>
      <point x="405" y="266" type="curve"/>
      <point x="437" y="350"/>
      <point x="512" y="413"/>
      <point x="607" y="413" type="curve" smooth="yes"/>
      <point x="725" y="413"/>
      <point x="772" y="316"/>
      <point x="772" y="231" type="curve" smooth="yes"/>
      <point x="772" y="224"/>
      <point x="772" y="216"/>
      <point x="772" y="214" type="curve"/>
      <point x="411" y="214" type="line"/>
      <point x="409" y="201"/>
      <point x="407" y="188"/>
      <point x="407" y="173" type="curve" smooth="yes"/>
      <point x="407" y="91"/>
      <point x="461" y="8"/>
      <point x="565" y="8" type="curve" smooth="yes"/>
      <point x="636" y="8"/>
      <point x="680" y="30"/>
      <point x="715" y="60" type="curve"/>
      <point x="729" y="45" type="line"/>
      <point x="694" y="14"/>
      <point x="644" y="-13"/>
      <point x="565" y="-13" type="curve" smooth="yes"/>
      <point x="463" y="-13"/>
      <point x="406" y="54"/>
    </contour>
    <contour>
      <point x="750" y="235" type="line"/>
      <point x="748" y="329"/>
      <point x="697" y="393"/>
      <point x="606" y="393" type="curve" smooth="yes"/>
      <point x="517" y="393"/>
      <point x="441" y="326"/>
      <point x="416" y="235" type="curve"/>
    </contour>
    <contour>
      <point x="233" y="393" type="curve" smooth="yes"/>
      <point x="116" y="393"/>
      <point x="29" y="289"/>
      <point x="29" y="175" type="curve" smooth="yes"/>
      <point x="29" y="93"/>
      <point x="83" y="8"/>
      <point x="188" y="8" type="curve" smooth="yes"/>
      <point x="299" y="8"/>
      <point x="390" y="107"/>
      <point x="390" y="225" type="curve" smooth="yes"/>
      <point x="390" y="306"/>
      <point x="339" y="393"/>
    </contour>
  </outline>
</glyph>
<glyph name="florin" format="1">
  <advance width="241"/>
  <unicode hex="0192"/>
  <outline>
    <contour>
      <point x="273" y="730" type="line"/>
      <point x="270" y="710" type="line"/>
      <point x="245" y="710" type="line" smooth="yes"/>
      <point x="183" y="710"/>
      <point x="170" y="674"/>
      <point x="164" y="639" type="curve" smooth="yes"/>
      <point x="123" y="401" type="line"/>
      <point x="204" y="401" type="line"/>
      <point x="201" y="381" type="line"/>
      <point x="119" y="381" type="line"/>
      <point x="120" y="381"/>
      <point x="38" y="-90"/>
      <point x="38" y="-90" type="curve" smooth="yes"/>
      <point x="25" y="-163"/>
      <point x="-7" y="-179"/>
      <point x="-64" y="-179" type="curve" smooth="yes"/>
      <point x="-74" y="-179" type="line"/>
      <point x="-71" y="-159" type="line"/>
      <point x="-65" y="-159" type="line" smooth="yes"/>
      <point x="-3" y="-159"/>
      <point x="8" y="-135"/>
      <point x="16" y="-88" type="curve" smooth="yes"/>
      <point x="97" y="381" type="line"/>
      <point x="36" y="381" type="line"/>
      <point x="39" y="401" type="line"/>
      <point x="39" y="401"/>
      <point x="101" y="401"/>
      <point x="100" y="401" type="curve"/>
      <point x="142" y="640" type="line" smooth="yes"/>
      <point x="153" y="701"/>
      <point x="187" y="730"/>
      <point x="242" y="730" type="curve" smooth="yes"/>
    </contour>
  </outline>
</glyph>
<glyph name="circumflex" format="1">
  <advance width="410"/>
  <unicode hex="02C6"/>
  <outline>
    <contour>
      <point x="329" y="484" type="line"/>
      <point x="307" y="484" type="line"/>
      <point x="237" y="588" type="line"/>
      <point x="129" y="484" type="line"/>
      <point x="106" y="484" type="line"/>
      <point x="230" y="608" type="line"/>
      <point x="247" y="608" type="line"/>
    </contour>
  </outline>
</glyph>
<glyph name="caron" format="1">
  <advance width="410"/>
  <unicode hex="02C7"/>
  <outline>
    <contour>
      <point x="338" y="608" type="line"/>
      <point x="213" y="484" type="line"/>
      <point x="196" y="484" type="line"/>
      <point x="115" y="608" type="line"/>
      <point x="135" y="608" type="line"/>
      <point x="208" y="511" type="line"/>
      <point x="318" y="608" type="line"/>
    </contour>
  </outline>
</glyph>
<glyph name="breve" format="1">
  <advance width="410"/>
  <unicode hex="02D8"/>
  <outline>
    <contour>
      <point x="351" y="607" type="line"/>
      <point x="337" y="528"/>
      <point x="270" y="480"/>
      <point x="203" y="480" type="curve" smooth="yes"/>
      <point x="136" y="480"/>
      <point x="87" y="528"/>
      <point x="101" y="607" type="curve"/>
      <point x="123" y="607" type="line"/>
      <point x="111" y="542"/>
      <point x="151" y="500"/>
      <point x="205" y="500" type="curve" smooth="yes"/>
      <point x="261" y="500"/>
      <point x="317" y="542"/>
      <point x="329" y="607" type="curve"/>
    </contour>
  </outline>
</glyph>
<glyph name="dotaccent" format="1">
  <advance width="410"/>
  <unicode hex="02D9"/>
  <outline>
    <contour>
      <point x="131" y="576" type="line"/>
      <point x="119" y="514" type="line"/>
      <point x="97" y="514" type="line"/>
      <point x="109" y="576" type="line"/>
    </contour>
  </outline>
</glyph>
<glyph name="ring" format="1">
  <advance width="410"/>
  <unicode hex="02DA"/>
  <outline>
    <contour>
      <point x="306" y="577" type="curve" smooth="yes"/>
      <point x="306" y="522"/>
      <point x="260" y="478"/>
      <point x="205" y="478" type="curve" smooth="yes"/>
      <point x="161" y="478"/>
      <point x="124" y="513"/>
      <point x="124" y="561" type="curve" smooth="yes"/>
      <point x="124" y="615"/>
      <point x="170" y="660"/>
      <point x="223" y="660" type="curve" smooth="yes"/>
      <point x="268" y="660"/>
      <point x="306" y="625"/>
    </contour>
    <contour>
      <point x="286" y="576" type="curve" smooth="yes"/>
      <point x="286" y="612"/>
      <point x="259" y="641"/>
      <point x="223" y="641" type="curve" smooth="yes"/>
      <point x="183" y="641"/>
      <point x="144" y="608"/>
      <point x="144" y="563" type="curve" smooth="yes"/>
      <point x="144" y="526"/>
      <point x="172" y="497"/>
      <point x="204" y="497" type="curve" smooth="yes"/>
      <point x="255" y="497"/>
      <point x="286" y="537"/>
    </contour>
  </outline>
</glyph>
<glyph name="ogonek" format="1">
  <advance width="410"/>
  <unicode hex="02DB"/>
  <outline>
    <contour>
      <point x="301" y="-151" type="line"/>
      <point x="272" y="-169"/>
      <point x="237" y="-179"/>
      <point x="210" y="-179" type="curve" smooth="yes"/>
      <point x="160" y="-179"/>
      <point x="113" y="-156"/>
      <point x="113" y="-106" type="curve" smooth="yes"/>
      <point x="113" y="-69"/>
      <point x="146" y="-22"/>
      <point x="221" y="9" type="curve"/>
      <point x="256" y="9" type="line"/>
      <point x="181" y="-22"/>
      <point x="134" y="-63"/>
      <point x="134" y="-106" type="curve" smooth="yes"/>
      <point x="134" y="-140"/>
      <point x="166" y="-159"/>
      <point x="211" y="-159" type="curve" smooth="yes"/>
      <point x="237" y="-159"/>
      <point x="265" y="-151"/>
      <point x="292" y="-135" type="curve"/>
    </contour>
  </outline>
</glyph>
<glyph name="tilde" format="1">
  <advance width="410"/>
  <unicode hex="02DC"/>
  <outline>
    <contour>
      <point x="360" y="573" type="line"/>
      <point x="348" y="507"/>
      <point x="320" y="479"/>
      <point x="285" y="479" type="curve" smooth="yes"/>
      <point x="256" y="479"/>
      <point x="237" y="503"/>
      <point x="217" y="525" type="curve" smooth="yes"/>
      <point x="201" y="541"/>
      <point x="184" y="556"/>
      <point x="161" y="556" type="curve" smooth="yes"/>
      <point x="135" y="556"/>
      <point x="117" y="523"/>
      <point x="110" y="484" type="curve"/>
      <point x="89" y="484" type="line"/>
      <point x="99" y="537"/>
      <point x="127" y="576"/>
      <point x="164" y="576" type="curve" smooth="yes"/>
      <point x="192" y="576"/>
      <point x="213" y="559"/>
      <point x="232" y="540" type="curve" smooth="yes"/>
      <point x="252" y="520"/>
      <point x="269" y="499"/>
      <point x="288" y="499" type="curve" smooth="yes"/>
      <point x="313" y="499"/>
      <point x="330" y="525"/>
      <point x="339" y="573" type="curve"/>
    </contour>
  </outline>
</glyph>
<glyph name="hungarumlaut" format="1">
  <advance width="410"/>
  <unicode hex="02DD"/>
  <outline>
    <contour>
      <point x="331" y="614" type="line"/>
      <point x="244" y="484" type="line"/>
      <point x="226" y="484" type="line"/>
      <point x="303" y="614" type="line"/>
    </contour>
    <contour>
      <point x="198" y="614" type="line"/>
      <point x="111" y="484" type="line"/>
      <point x="93" y="484" type="line"/>
      <point x="170" y="614" type="line"/>
    </contour>
  </outline>
</glyph>
<glyph name="endash" format="1">
  <advance width="395"/>
  <unicode hex="2013"/>
  <outline>
    <contour>
      <point x="305" y="242" type="line"/>
      <point x="301" y="220" type="line"/>
      <point x="42" y="220" type="line"/>
      <point x="46" y="242" type="line"/>
    </contour>
  </outline>
</glyph>
<glyph name="emdash" format="1">
  <advance width="542"/>
  <unicode hex="2014"/>
  <outline>
    <contour>
      <point x="452" y="242" type="line"/>
      <point x="449" y="220" type="line"/>
      <point x="42" y="220" type="line"/>
      <point x="45" y="242" type="line"/>
    </contour>
  </outline>
</glyph>
<glyph name="quoteleft" format="1">
  <advance width="162"/>
  <unicode hex="2018"/>
  <unicode hex="02BB"/>
  <outline>
    <contour>
      <point x="182" y="730" type="line"/>
      <point x="143" y="688"/>
      <point x="146" y="661"/>
      <point x="140" y="624" type="curve" smooth="yes"/>
      <point x="132" y="573" type="line"/>
      <point x="110" y="573" type="line"/>
      <point x="122" y="645" type="line" smooth="yes"/>
      <point x="126" y="667"/>
      <point x="130" y="700"/>
      <point x="162" y="730" type="curve"/>
    </contour>
  </outline>
</glyph>
<glyph name="quoteright" format="1">
  <advance width="138"/>
  <unicode hex="2019"/>
  <unicode hex="02BC"/>
  <outline>
    <contour>
      <point x="78" y="573" type="line"/>
      <point x="117" y="615"/>
      <point x="114" y="642"/>
      <point x="120" y="679" type="curve" smooth="yes"/>
      <point x="128" y="730" type="line"/>
      <point x="150" y="730" type="line"/>
      <point x="138" y="658" type="line" smooth="yes"/>
      <point x="134" y="636"/>
      <point x="130" y="603"/>
      <point x="98" y="573" type="curve"/>
    </contour>
  </outline>
</glyph>
<glyph name="quotesinglbase" format="1">
  <advance width="158"/>
  <unicode hex="201A"/>
  <outline>
    <contour>
      <point x="37" y="68" type="line"/>
      <point x="25" y="-3" type="line" smooth="yes"/>
      <point x="21" y="-25"/>
      <point x="8" y="-65"/>
      <point x="-16" y="-88" type="curve"/>
      <point x="-35" y="-88" type="line"/>
      <point x="-5" y="-52"/>
      <point x="-3" y="-20"/>
      <point x="5" y="18" type="curve" smooth="yes"/>
      <point x="15" y="68" type="line"/>
    </contour>
  </outline>
</glyph>
<glyph name="quotedblleft" format="1">
  <advance width="257"/>
  <unicode hex="201C"/>
  <outline>
    <contour>
      <point x="281" y="730" type="line"/>
      <point x="242" y="688"/>
      <point x="245" y="661"/>
      <point x="239" y="624" type="curve" smooth="yes"/>
      <point x="231" y="573" type="line"/>
      <point x="209" y="573" type="line"/>
      <point x="221" y="645" type="line" smooth="yes"/>
      <point x="225" y="667"/>
      <point x="229" y="700"/>
      <point x="261" y="730" type="curve"/>
    </contour>
    <contour>
      <point x="182" y="730" type="line"/>
      <point x="143" y="688"/>
      <point x="146" y="661"/>
      <point x="140" y="624" type="curve" smooth="yes"/>
      <point x="132" y="573" type="line"/>
      <point x="110" y="573" type="line"/>
      <point x="122" y="645" type="line" smooth="yes"/>
      <point x="126" y="667"/>
      <point x="130" y="700"/>
      <point x="162" y="730" type="curve"/>
    </contour>
  </outline>
</glyph>
<glyph name="quotedblright" format="1">
  <advance width="237"/>
  <unicode hex="201D"/>
  <outline>
    <contour>
      <point x="177" y="573" type="line"/>
      <point x="216" y="615"/>
      <point x="213" y="642"/>
      <point x="219" y="679" type="curve" smooth="yes"/>
      <point x="227" y="730" type="line"/>
      <point x="249" y="730" type="line"/>
      <point x="237" y="658" type="line" smooth="yes"/>
      <point x="233" y="636"/>
      <point x="229" y="603"/>
      <point x="197" y="573" type="curve"/>
    </contour>
    <contour>
      <point x="78" y="573" type="line"/>
      <point x="117" y="615"/>
      <point x="114" y="642"/>
      <point x="120" y="679" type="curve" smooth="yes"/>
      <point x="128" y="730" type="line"/>
      <point x="150" y="730" type="line"/>
      <point x="138" y="658" type="line" smooth="yes"/>
      <point x="134" y="636"/>
      <point x="130" y="603"/>
      <point x="98" y="573" type="curve"/>
    </contour>
  </outline>
</glyph>
<glyph name="quotedblbase" format="1">
  <advance width="249"/>
  <unicode hex="201E"/>
  <outline>
    <contour>
      <point x="136" y="68" type="line"/>
      <point x="124" y="-3" type="line" smooth="yes"/>
      <point x="120" y="-25"/>
      <point x="107" y="-65"/>
      <point x="83" y="-88" type="curve"/>
      <point x="64" y="-88" type="line"/>
      <point x="94" y="-52"/>
      <point x="96" y="-20"/>
      <point x="104" y="18" type="curve" smooth="yes"/>
      <point x="114" y="68" type="line"/>
    </contour>
    <contour>
      <point x="37" y="68" type="line"/>
      <point x="25" y="-3" type="line" smooth="yes"/>
      <point x="21" y="-25"/>
      <point x="8" y="-65"/>
      <point x="-16" y="-88" type="curve"/>
      <point x="-35" y="-88" type="line"/>
      <point x="-5" y="-52"/>
      <point x="-3" y="-20"/>
      <point x="5" y="18" type="curve" smooth="yes"/>
      <point x="15" y="68" type="line"/>
    </contour>
  </outline>
</glyph>
<glyph name="dagger" format="1">
  <advance width="503"/>
  <unicode hex="2020"/>
  <outline>
    <contour>
      <point x="494" y="428" type="line"/>
      <point x="490" y="408" type="line"/>
      <point x="269" y="408" type="line"/>
      <point x="166" y="-179" type="line"/>
      <point x="144" y="-179" type="line"/>
      <point x="248" y="408" type="line"/>
      <point x="27" y="408" type="line"/>
      <point x="31" y="428" type="line"/>
      <point x="252" y="428" type="line"/>
      <point x="305" y="730" type="line"/>
      <point x="327" y="730" type="line"/>
      <point x="273" y="428" type="line"/>
    </contour>
  </outline>
</glyph>
<glyph name="daggerdbl" format="1">
  <advance width="503"/>
  <unicode hex="2021"/>
  <outline>
    <contour>
      <point x="495" y="430" type="line"/>
      <point x="491" y="411" type="line"/>
      <point x="270" y="411" type="line"/>
      <point x="227" y="160" type="line"/>
      <point x="448" y="160" type="line"/>
      <point x="442" y="141" type="line"/>
      <point x="222" y="141" type="line"/>
      <point x="166" y="-179" type="line"/>
      <point x="144" y="-179" type="line"/>
      <point x="201" y="141" type="line"/>
      <point x="-20" y="141" type="line"/>
      <point x="-15" y="160" type="line"/>
      <point x="206" y="160" type="line"/>
      <point x="249" y="411" type="line"/>
      <point x="28" y="411" type="line"/>
      <point x="32" y="430" type="line"/>
      <point x="253" y="430" type="line"/>
      <point x="305" y="730" type="line"/>
      <point x="327" y="730" type="line"/>
      <point x="274" y="430" type="line"/>
    </contour>
  </outline>
</glyph>
<glyph name="ellipsis" format="1">
  <advance width="486"/>
  <unicode hex="2026"/>
  <outline>
    <contour>
      <point x="379" y="84" type="line"/>
      <point x="364" y="0" type="line"/>
      <point x="342" y="0" type="line"/>
      <point x="357" y="84" type="line"/>
    </contour>
    <contour>
      <point x="209" y="84" type="line"/>
      <point x="194" y="0" type="line"/>
      <point x="172" y="0" type="line"/>
      <point x="187" y="84" type="line"/>
    </contour>
    <contour>
      <point x="39" y="84" type="line"/>
      <point x="24" y="0" type="line"/>
      <point x="2" y="0" type="line"/>
      <point x="17" y="84" type="line"/>
    </contour>
  </outline>
</glyph>
<glyph name="guilsinglleft" format="1">
  <advance width="193"/>
  <unicode hex="2039"/>
  <outline>
    <contour>
      <point x="166" y="331" type="line"/>
      <point x="160" y="308" type="line"/>
      <point x="24" y="202" type="line"/>
      <point x="120" y="104" type="line"/>
      <point x="118" y="80" type="line"/>
      <point x="-2" y="194" type="line"/>
      <point x="2" y="216" type="line"/>
    </contour>
  </outline>
</glyph>
<glyph name="guilsinglright" format="1">
  <advance width="230"/>
  <unicode hex="203A"/>
  <outline>
    <contour>
      <point x="194" y="218" type="line"/>
      <point x="190" y="196" type="line"/>
      <point x="26" y="81" type="line"/>
      <point x="32" y="104" type="line"/>
      <point x="168" y="210" type="line"/>
      <point x="72" y="308" type="line"/>
      <point x="74" y="332" type="line"/>
    </contour>
  </outline>
</glyph>
<glyph name="fraction" format="1">
  <advance width="382"/>
  <unicode hex="2044"/>
  <outline>
    <contour>
      <point x="490" y="730" type="line"/>
      <point x="-92" y="0" type="line"/>
      <point x="-110" y="0" type="line"/>
      <point x="472" y="730" type="line"/>
    </contour>
  </outline>
</glyph>
<glyph name="Euro" format="1">
  <advance width="550"/>
  <unicode hex="20AC"/>
  <outline>
    <contour>
      <point x="561" y="617" type="curve"/>
      <point x="542" y="608" type="line"/>
      <point x="521" y="669"/>
      <point x="482" y="722"/>
      <point x="399" y="722" type="curve" smooth="yes"/>
      <point x="271" y="722"/>
      <point x="167" y="593"/>
      <point x="122" y="430" type="curve"/>
      <point x="123" y="430"/>
      <point x="404" y="430"/>
      <point x="404" y="430" type="curve"/>
      <point x="401" y="410" type="line"/>
      <point x="117" y="410" type="line"/>
      <point x="109" y="376"/>
      <point x="104" y="340"/>
      <point x="101" y="304" type="curve"/>
      <point x="382" y="304" type="line"/>
      <point x="379" y="284" type="line"/>
      <point x="100" y="284" type="line"/>
      <point x="99" y="274"/>
      <point x="99" y="264"/>
      <point x="99" y="254" type="curve" smooth="yes"/>
      <point x="99" y="119"/>
      <point x="148" y="8"/>
      <point x="264" y="8" type="curve" smooth="yes"/>
      <point x="347" y="8"/>
      <point x="409" y="55"/>
      <point x="461" y="125" type="curve"/>
      <point x="478" y="112" type="line"/>
      <point x="419" y="36"/>
      <point x="352" y="-12"/>
      <point x="261" y="-12" type="curve" smooth="yes"/>
      <point x="136" y="-12"/>
      <point x="77" y="106"/>
      <point x="77" y="251" type="curve" smooth="yes"/>
      <point x="77" y="262"/>
      <point x="77" y="273"/>
      <point x="77" y="284" type="curve"/>
      <point x="7" y="284" type="line"/>
      <point x="10" y="304" type="line"/>
      <point x="78" y="304" type="line"/>
      <point x="80" y="340"/>
      <point x="85" y="375"/>
      <point x="93" y="410" type="curve"/>
      <point x="29" y="410" type="line"/>
      <point x="32" y="430" type="line"/>
      <point x="99" y="430" type="line"/>
      <point x="147" y="609"/>
      <point x="261" y="742"/>
      <point x="397" y="742" type="curve" smooth="yes"/>
      <point x="490" y="742"/>
      <point x="539" y="686"/>
    </contour>
  </outline>
</glyph>
<glyph name="uni2117" format="1">
  <advance width="844"/>
  <unicode hex="2117"/>
  <outline>
    <contour>
      <point x="45" y="365" type="curve" smooth="yes"/>
      <point x="45" y="573"/>
      <point x="214" y="742"/>
      <point x="422" y="742" type="curve" smooth="yes"/>
      <point x="630" y="742"/>
      <point x="799" y="573"/>
      <point x="799" y="365" type="curve" smooth="yes"/>
      <point x="799" y="157"/>
      <point x="630" y="-12"/>
      <point x="422" y="-12" type="curve" smooth="yes"/>
      <point x="214" y="-12"/>
      <point x="45" y="157"/>
    </contour>
    <contour>
      <point x="777" y="365" type="curve" smooth="yes"/>
      <point x="777" y="561"/>
      <point x="618" y="722"/>
      <point x="422" y="722" type="curve" smooth="yes"/>
      <point x="226" y="722"/>
      <point x="67" y="561"/>
      <point x="67" y="365" type="curve" smooth="yes"/>
      <point x="67" y="169"/>
      <point x="226" y="8"/>
      <point x="422" y="8" type="curve" smooth="yes"/>
      <point x="618" y="8"/>
      <point x="777" y="169"/>
    </contour>
    <contour>
      <point x="354" y="330" type="line"/>
      <point x="354" y="146" type="line"/>
      <point x="332" y="146" type="line"/>
      <point x="332" y="584" type="line"/>
      <point x="420" y="584" type="line" smooth="yes"/>
      <point x="510" y="584"/>
      <point x="567" y="535"/>
      <point x="567" y="459" type="curve" smooth="yes"/>
      <point x="567" y="383"/>
      <point x="508" y="330"/>
      <point x="420" y="330" type="curve" smooth="yes"/>
    </contour>
    <contour>
      <point x="354" y="350" type="line"/>
      <point x="422" y="350" type="line" smooth="yes"/>
      <point x="494" y="350"/>
      <point x="545" y="395"/>
      <point x="545" y="459" type="curve" smooth="yes"/>
      <point x="545" y="523"/>
      <point x="496" y="564"/>
      <point x="422" y="564" type="curve" smooth="yes"/>
      <point x="354" y="564" type="line"/>
    </contour>
  </outline>
</glyph>
<glyph name="trademark" format="1">
  <advance width="811"/>
  <unicode hex="2122"/>
  <outline>
    <contour>
      <point x="369" y="302" type="line"/>
      <point x="369" y="730" type="line"/>
      <point x="391" y="730" type="line"/>
      <point x="554" y="494" type="line"/>
      <point x="717" y="730" type="line"/>
      <point x="739" y="730" type="line"/>
      <point x="739" y="302" type="line"/>
      <point x="717" y="302" type="line"/>
      <point x="717" y="694" type="line"/>
      <point x="562" y="469" type="line"/>
      <point x="546" y="469" type="line"/>
      <point x="391" y="694" type="line"/>
      <point x="391" y="302" type="line"/>
    </contour>
    <contour>
      <point x="291" y="710" type="line"/>
      <point x="164" y="710" type="line"/>
      <point x="164" y="302" type="line"/>
      <point x="142" y="302" type="line"/>
      <point x="142" y="710" type="line"/>
      <point x="27" y="710" type="line"/>
      <point x="27" y="730" type="line"/>
      <point x="291" y="730" type="line"/>
    </contour>
  </outline>
</glyph>
<glyph name="minus" format="1">
  <advance width="483"/>
  <unicode hex="2212"/>
  <outline>
    <contour>
      <point x="444" y="320" type="line"/>
      <point x="35" y="320" type="line"/>
      <point x="39" y="340" type="line"/>
      <point x="448" y="340" type="line"/>
    </contour>
  </outline>
</glyph>
<glyph name="radical" format="1">
  <advance width="505"/>
  <unicode hex="221A"/>
  <outline>
    <contour>
      <point x="538" y="730" type="line"/>
      <point x="124" y="-29" type="line"/>
      <point x="120" y="-29" type="line"/>
      <point x="8" y="316" type="line"/>
      <point x="32" y="316" type="line"/>
      <point x="125" y="28" type="line"/>
      <point x="128" y="20" type="line"/>
      <point x="132" y="28" type="line"/>
      <point x="515" y="730" type="line"/>
    </contour>
  </outline>
</glyph>
<glyph name="apple" format="1">
  <advance width="730"/>
  <unicode hex="F8FF"/>
  <outline>
    <contour>
      <point x="387" y="710" type="line"/>
      <point x="343" y="710" type="line"/>
      <point x="343" y="730" type="line"/>
      <point x="387" y="730" type="line"/>
    </contour>
    <contour>
      <point x="730" y="343" type="line"/>
      <point x="708" y="343" type="line"/>
      <point x="708" y="387" type="line"/>
      <point x="730" y="387" type="line"/>
    </contour>
    <contour>
      <point x="387" y="343" type="line"/>
      <point x="343" y="343" type="line"/>
      <point x="343" y="387" type="line"/>
      <point x="387" y="387" type="line"/>
    </contour>
    <contour>
      <point x="22" y="343" type="line"/>
      <point x="0" y="343" type="line"/>
      <point x="0" y="387" type="line"/>
      <point x="22" y="387" type="line"/>
    </contour>
    <contour>
      <point x="387" y="0" type="line"/>
      <point x="343" y="0" type="line"/>
      <point x="343" y="20" type="line"/>
      <point x="387" y="20" type="line"/>
    </contour>
  </outline>
</glyph>
<glyph name="f_f" format="1">
  <advance width="350"/>
  <unicode hex="FB00"/>
  <outline>
    <contour>
      <point x="-13" y="-179" type="line"/>
      <point x="79" y="381" type="line"/>
      <point x="5" y="381" type="line"/>
      <point x="9" y="401" type="line"/>
      <point x="83" y="401" type="line"/>
      <point x="127" y="666" type="line" smooth="yes"/>
      <point x="136" y="723"/>
      <point x="169" y="740"/>
      <point x="209" y="740" type="curve" smooth="yes"/>
      <point x="230" y="740" type="line"/>
      <point x="227" y="719" type="line"/>
      <point x="205" y="719" type="line" smooth="yes"/>
      <point x="175" y="719"/>
      <point x="155" y="709"/>
      <point x="146" y="655" type="curve" smooth="yes"/>
      <point x="104" y="401" type="line"/>
      <point x="258" y="401" type="line"/>
      <point x="302" y="666" type="line" smooth="yes"/>
      <point x="311" y="723"/>
      <point x="344" y="740"/>
      <point x="384" y="740" type="curve" smooth="yes"/>
      <point x="405" y="740" type="line"/>
      <point x="402" y="719" type="line"/>
      <point x="380" y="719" type="line" smooth="yes"/>
      <point x="350" y="719"/>
      <point x="330" y="709"/>
      <point x="321" y="655" type="curve" smooth="yes"/>
      <point x="279" y="401" type="line"/>
      <point x="347" y="401" type="line"/>
      <point x="342" y="381" type="line"/>
      <point x="275" y="381" type="line"/>
      <point x="183" y="-179" type="line"/>
      <point x="162" y="-179" type="line"/>
      <point x="254" y="381" type="line"/>
      <point x="100" y="381" type="line"/>
      <point x="8" y="-179" type="line"/>
    </contour>
  </outline>
</glyph>
<glyph name="a.salt" format="1">
  <advance width="462"/>
  <outline>
    <contour>
      <point x="400" y="401" type="line"/>
      <point x="333" y="0" type="line"/>
      <point x="312" y="0" type="line"/>
      <point x="329" y="94" type="line"/>
      <point x="302" y="30"/>
      <point x="227" y="-12"/>
      <point x="162" y="-12" type="curve" smooth="yes"/>
      <point x="58" y="-12"/>
      <point x="-1" y="69"/>
      <point x="-1" y="154" type="curve" smooth="yes"/>
      <point x="-1" y="321"/>
      <point x="104" y="413"/>
      <point x="215" y="413" type="curve" smooth="yes"/>
      <point x="286" y="413"/>
      <point x="338" y="371"/>
      <point x="368" y="320" type="curve"/>
      <point x="381" y="401" type="line"/>
    </contour>
    <contour>
      <point x="363" y="289" type="line"/>
      <point x="337" y="347"/>
      <point x="289" y="392"/>
      <point x="209" y="392" type="curve" smooth="yes"/>
      <point x="96" y="392"/>
      <point x="20" y="281"/>
      <point x="20" y="163" type="curve" smooth="yes"/>
      <point x="20" y="62"/>
      <point x="81" y="9"/>
      <point x="163" y="9" type="curve" smooth="yes"/>
      <point x="246" y="9"/>
      <point x="328" y="70"/>
      <point x="348" y="196" type="curve" smooth="yes"/>
    </contour>
  </outline>
</glyph>
<glyph name="bullet" format="1">
  <advance width="273"/>
  <outline>
    <contour>
      <point x="198" y="379" type="curve" smooth="yes"/>
      <point x="198" y="345"/>
      <point x="170" y="318"/>
      <point x="136" y="318" type="curve" smooth="yes"/>
      <point x="102" y="318"/>
      <point x="75" y="345"/>
      <point x="75" y="379" type="curve" smooth="yes"/>
      <point x="75" y="413"/>
      <point x="102" y="440"/>
      <point x="136" y="440" type="curve" smooth="yes"/>
      <point x="170" y="440"/>
      <point x="198" y="413"/>
    </contour>
  </outline>
</glyph>
<glyph name="macron" format="1">
  <advance width="410"/>
  <outline>
    <contour>
      <point x="350" y="520" type="line"/>
      <point x="350" y="500" type="line"/>
      <point x="90" y="500" type="line"/>
      <point x="90" y="520" type="line"/>
    </contour>
  </outline>
</glyph>
<glyph name="onesuperior" format="1">
  <advance width="313"/>
  <outline>
    <contour>
      <point x="174" y="355" type="line"/>
      <point x="153" y="355" type="line"/>
      <point x="211" y="683" type="line"/>
      <point x="194" y="667"/>
      <point x="171" y="654"/>
      <point x="141" y="649" type="curve"/>
      <point x="145" y="671" type="line"/>
      <point x="174" y="673"/>
      <point x="209" y="702"/>
      <point x="220" y="730" type="curve"/>
      <point x="241" y="730" type="line"/>
    </contour>
  </outline>
</glyph>
<glyph name="registered" format="1">
  <advance width="844"/>
  <outline>
    <contour>
      <point x="45" y="365" type="curve" smooth="yes"/>
      <point x="45" y="573"/>
      <point x="214" y="742"/>
      <point x="422" y="742" type="curve" smooth="yes"/>
      <point x="630" y="742"/>
      <point x="799" y="573"/>
      <point x="799" y="365" type="curve" smooth="yes"/>
      <point x="799" y="157"/>
      <point x="630" y="-12"/>
      <point x="422" y="-12" type="curve" smooth="yes"/>
      <point x="214" y="-12"/>
      <point x="45" y="157"/>
    </contour>
    <contour>
      <point x="777" y="365" type="curve" smooth="yes"/>
      <point x="777" y="561"/>
      <point x="618" y="722"/>
      <point x="422" y="722" type="curve" smooth="yes"/>
      <point x="226" y="722"/>
      <point x="67" y="561"/>
      <point x="67" y="365" type="curve" smooth="yes"/>
      <point x="67" y="169"/>
      <point x="226" y="8"/>
      <point x="422" y="8" type="curve" smooth="yes"/>
      <point x="618" y="8"/>
      <point x="777" y="169"/>
    </contour>
    <contour>
      <point x="315" y="155" type="line"/>
      <point x="315" y="593" type="line"/>
      <point x="412" y="593" type="line" smooth="yes"/>
      <point x="489" y="593"/>
      <point x="553" y="548"/>
      <point x="553" y="472" type="curve" smooth="yes"/>
      <point x="553" y="387"/>
      <point x="484" y="348"/>
      <point x="404" y="348" type="curve" smooth="yes"/>
      <point x="392" y="348" type="line"/>
      <point x="565" y="155" type="line"/>
      <point x="537" y="155" type="line"/>
      <point x="345" y="368" type="line"/>
      <point x="406" y="368" type="line" smooth="yes"/>
      <point x="472" y="368"/>
      <point x="531" y="401"/>
      <point x="531" y="472" type="curve" smooth="yes"/>
      <point x="531" y="536"/>
      <point x="477" y="573"/>
      <point x="414" y="573" type="curve" smooth="yes"/>
      <point x="337" y="573" type="line"/>
      <point x="337" y="155" type="line"/>
    </contour>
  </outline>
</glyph>
<glyph name="threesuperior" format="1">
  <advance width="412"/>
  <outline>
    <contour>
      <point x="187" y="549" type="curve"/>
      <point x="190" y="569" type="line"/>
      <point x="190" y="569"/>
      <point x="232" y="569"/>
      <point x="237" y="570" type="curve" smooth="yes"/>
      <point x="298" y="577"/>
      <point x="331" y="611"/>
      <point x="331" y="653" type="curve" smooth="yes"/>
      <point x="331" y="700"/>
      <point x="289" y="719"/>
      <point x="250" y="719" type="curve" smooth="yes"/>
      <point x="214" y="719"/>
      <point x="189" y="709"/>
      <point x="164" y="689" type="curve"/>
      <point x="150" y="706" type="line"/>
      <point x="180" y="729"/>
      <point x="211" y="740"/>
      <point x="250" y="740" type="curve" smooth="yes"/>
      <point x="302" y="740"/>
      <point x="352" y="713"/>
      <point x="352" y="653" type="curve" smooth="yes"/>
      <point x="352" y="612"/>
      <point x="328" y="576"/>
      <point x="280" y="559" type="curve"/>
      <point x="317" y="542"/>
      <point x="336" y="513"/>
      <point x="336" y="469" type="curve" smooth="yes"/>
      <point x="336" y="401"/>
      <point x="288" y="352"/>
      <point x="214" y="352" type="curve" smooth="yes"/>
      <point x="158" y="352"/>
      <point x="105" y="378"/>
      <point x="80" y="434" type="curve"/>
      <point x="100" y="444" type="line"/>
      <point x="120" y="396"/>
      <point x="166" y="373"/>
      <point x="214" y="373" type="curve" smooth="yes"/>
      <point x="275" y="373"/>
      <point x="315" y="413"/>
      <point x="315" y="469" type="curve" smooth="yes"/>
      <point x="315" y="533"/>
      <point x="257" y="549"/>
      <point x="231" y="549" type="curve" smooth="yes"/>
      <point x="227" y="549"/>
      <point x="187" y="549"/>
    </contour>
  </outline>
</glyph>
